<?xml version="1.0" encoding="UTF-8"?> <svg xmlns="http://www.w3.org/2000/svg" xmlns:xlink="http://www.w3.org/1999/xlink" id="Layer_1" data-name="Layer 1" viewBox="0 0 3241.68 623.3"> <defs> <style>.cls-1,.cls-22,.cls-27,.cls-39,.cls-41,.cls-42,.cls-46,.cls-52,.cls-53,.cls-54,.cls-60,.cls-63,.cls-7{fill:none;}.cls-2{fill:#46bd85;}.cls-3{fill:url(#linear-gradient);}.cls-4,.cls-47,.cls-71{fill:#ffd548;}.cls-5{fill:#2742ab;}.cls-6{fill:#4a96fb;}.cls-7{stroke:#2742ab;}.cls-16,.cls-22,.cls-24,.cls-39,.cls-42,.cls-52,.cls-53,.cls-54,.cls-60,.cls-61,.cls-63,.cls-7{stroke-miterlimit:10;}.cls-8{fill:url(#linear-gradient-2);}.cls-9{fill:url(#linear-gradient-3);}.cls-10{fill:url(#linear-gradient-4);}.cls-11{fill:#8d41ff;}.cls-12,.cls-16{fill:#1a2d6b;}.cls-13{fill:url(#linear-gradient-5);}.cls-14{fill:url(#linear-gradient-6);}.cls-15{fill:url(#linear-gradient-7);}.cls-16,.cls-63{stroke:#1a2d6b;}.cls-17{fill:url(#linear-gradient-8);}.cls-18{fill:url(#linear-gradient-9);}.cls-19{fill:url(#linear-gradient-10);}.cls-20{fill:url(#linear-gradient-11);}.cls-21{fill:url(#linear-gradient-12);}.cls-22,.cls-47{stroke:#ffd548;}.cls-23{fill:#e9c4ab;}.cls-24{stroke:#000;stroke-width:0.1px;}.cls-25{fill:url(#linear-gradient-13);}.cls-26,.cls-61{fill:#fff;}.cls-27,.cls-39,.cls-41{stroke:#4a96fb;}.cls-27,.cls-41,.cls-46,.cls-47,.cls-71{stroke-linecap:round;stroke-linejoin:round;}.cls-27{opacity:0.32;}.cls-28{fill:url(#linear-gradient-14);}.cls-29{fill:url(#linear-gradient-15);}.cls-30{fill:url(#linear-gradient-16);}.cls-31{fill:url(#linear-gradient-17);}.cls-32{fill:url(#linear-gradient-18);}.cls-33{fill:url(#linear-gradient-19);}.cls-34{fill:url(#linear-gradient-20);}.cls-35{fill:url(#linear-gradient-21);}.cls-36{fill:url(#linear-gradient-22);}.cls-37{fill:url(#linear-gradient-23);}.cls-38{fill:url(#linear-gradient-24);}.cls-40{fill:url(#linear-gradient-25);}.cls-42{stroke:#2760ab;}.cls-43{fill:url(#linear-gradient-26);}.cls-44{fill:url(#linear-gradient-27);}.cls-45{fill:url(#linear-gradient-28);}.cls-46,.cls-71{stroke:#e6aa32;}.cls-46,.cls-47,.cls-71{stroke-width:3px;}.cls-48{fill:url(#linear-gradient-29);}.cls-49{fill:url(#linear-gradient-30);}.cls-50{fill:#e84e1b;}.cls-51{clip-path:url(#clip-path);}.cls-52,.cls-54,.cls-60,.cls-61{stroke:#fff;}.cls-52{stroke-width:0.25px;}.cls-53{stroke:#e84e1b;stroke-width:0.5px;}.cls-55{fill:url(#linear-gradient-31);}.cls-56{fill:#50d17b;}.cls-57{fill:url(#linear-gradient-32);}.cls-58{fill:url(#linear-gradient-33);}.cls-59{fill:url(#linear-gradient-34);}.cls-60,.cls-61{stroke-width:0.75px;}.cls-62{fill:url(#linear-gradient-35);}.cls-64{fill:url(#linear-gradient-36);}.cls-65{fill:url(#linear-gradient-38);}.cls-66{fill:url(#linear-gradient-39);}.cls-67{fill:url(#linear-gradient-40);}.cls-68{fill:url(#linear-gradient-41);}.cls-69{fill:url(#linear-gradient-42);}.cls-70{fill:url(#linear-gradient-43);}.cls-72{fill:url(#linear-gradient-44);}.cls-73{fill:url(#linear-gradient-45);}.cls-74{fill:url(#linear-gradient-46);}.cls-75{fill:url(#linear-gradient-47);}.cls-76{fill:url(#linear-gradient-49);}.cls-77{fill:url(#linear-gradient-50);}</style> <linearGradient id="linear-gradient" x1="2925.27" y1="453.26" x2="3286.99" y2="453.26" gradientUnits="userSpaceOnUse"> <stop offset="0" stop-color="#2742ab"></stop> <stop offset="0.01" stop-color="#2743ac"></stop> <stop offset="0.17" stop-color="#3461c9"></stop> <stop offset="0.35" stop-color="#3e78df"></stop> <stop offset="0.53" stop-color="#4589ef"></stop> <stop offset="0.74" stop-color="#4993f8"></stop> <stop offset="1" stop-color="#4a96fb"></stop> </linearGradient> <linearGradient id="linear-gradient-2" x1="721.49" y1="473.82" x2="1109.07" y2="473.82" gradientUnits="userSpaceOnUse"> <stop offset="0" stop-color="#8d41ff"></stop> <stop offset="0.25" stop-color="#8b40fc"></stop> <stop offset="0.44" stop-color="#863ef2"></stop> <stop offset="0.61" stop-color="#7c39e2"></stop> <stop offset="0.77" stop-color="#6f33cc"></stop> <stop offset="0.92" stop-color="#5e2baf"></stop> <stop offset="1" stop-color="#53269b"></stop> </linearGradient> <linearGradient id="linear-gradient-3" x1="434.56" y1="466.94" x2="796.28" y2="466.94" xlink:href="#linear-gradient"></linearGradient> <linearGradient id="linear-gradient-4" x1="638.45" y1="-1594.38" x2="728.91" y2="-1594.38" gradientTransform="translate(1470.23 -1094.27) rotate(180)" xlink:href="#linear-gradient"></linearGradient> <linearGradient id="linear-gradient-5" x1="2589.25" y1="466.4" x2="2914.91" y2="466.4" xlink:href="#linear-gradient"></linearGradient> <linearGradient id="linear-gradient-6" x1="2097.44" y1="466.94" x2="2570.87" y2="466.94" xlink:href="#linear-gradient"></linearGradient> <linearGradient id="linear-gradient-7" x1="1613.66" y1="516.98" x2="1992.6" y2="516.98" xlink:href="#linear-gradient-2"></linearGradient> <linearGradient id="linear-gradient-8" x1="1823.6" y1="525.36" x2="1914.06" y2="525.36" xlink:href="#linear-gradient"></linearGradient> <linearGradient id="linear-gradient-9" x1="1514.33" y1="526.17" x2="1793.61" y2="526.17" gradientUnits="userSpaceOnUse"> <stop offset="0" stop-color="#db3f32"></stop> <stop offset="0.04" stop-color="#e15836"></stop> <stop offset="0.11" stop-color="#e9793b"></stop> <stop offset="0.19" stop-color="#f0963f"></stop> <stop offset="0.27" stop-color="#f5ad42"></stop> <stop offset="0.37" stop-color="#fabf45"></stop> <stop offset="0.49" stop-color="#fdcc47"></stop> <stop offset="0.64" stop-color="#ffd348"></stop> <stop offset="1" stop-color="#ffd548"></stop> </linearGradient> <linearGradient id="linear-gradient-10" x1="1559.79" y1="456.31" x2="1658.1" y2="456.31" xlink:href="#linear-gradient"></linearGradient> <linearGradient id="linear-gradient-11" x1="131.99" y1="487.07" x2="413.35" y2="487.07" xlink:href="#linear-gradient-9"></linearGradient> <linearGradient id="linear-gradient-12" x1="1332.35" y1="486.12" x2="1552.96" y2="486.12" xlink:href="#linear-gradient"></linearGradient> <linearGradient id="linear-gradient-13" x1="1792.94" y1="562.97" x2="1787.17" y2="606.72" gradientUnits="userSpaceOnUse"> <stop offset="0.41" stop-color="#8d41ff"></stop> <stop offset="0.46" stop-color="#883ff7"></stop> <stop offset="0.53" stop-color="#7b39e0"></stop> <stop offset="0.63" stop-color="#652eba"></stop> <stop offset="0.7" stop-color="#53269b"></stop> </linearGradient> <linearGradient id="linear-gradient-14" x1="884.43" y1="491.76" x2="1204.88" y2="491.76" xlink:href="#linear-gradient"></linearGradient> <linearGradient id="linear-gradient-15" x1="-54.07" y1="446.52" x2="193.08" y2="446.52" xlink:href="#linear-gradient"></linearGradient> <linearGradient id="linear-gradient-16" x1="1647.81" y1="549.98" x2="1643.22" y2="660.45" gradientUnits="userSpaceOnUse"> <stop offset="0.27" stop-color="#2742ab"></stop> <stop offset="0.43" stop-color="#2946af"></stop> <stop offset="0.59" stop-color="#2e52ba"></stop> <stop offset="0.75" stop-color="#3666ce"></stop> <stop offset="0.91" stop-color="#4282e8"></stop> <stop offset="1" stop-color="#4a96fb"></stop> </linearGradient> <linearGradient id="linear-gradient-17" x1="718.87" y1="963.75" x2="718.87" y2="394.32" gradientUnits="userSpaceOnUse"> <stop offset="0.63" stop-color="#46bd85"></stop> <stop offset="0.75" stop-color="#399b61"></stop> <stop offset="0.84" stop-color="#32874c"></stop> </linearGradient> <linearGradient id="linear-gradient-18" x1="2689.79" y1="445.86" x2="2666.89" y2="781.91" gradientUnits="userSpaceOnUse"> <stop offset="0" stop-color="#46bd85"></stop> <stop offset="0.25" stop-color="#40ac73"></stop> <stop offset="0.73" stop-color="#369157"></stop> <stop offset="1" stop-color="#32874c"></stop> </linearGradient> <linearGradient id="linear-gradient-19" x1="2093.42" y1="249.2" x2="2091.46" y2="145.47" gradientUnits="userSpaceOnUse"> <stop offset="0" stop-color="#2742ab"></stop> <stop offset="0.23" stop-color="#325ec5"></stop> <stop offset="0.55" stop-color="#3f7ce3"></stop> <stop offset="0.81" stop-color="#478ff5"></stop> <stop offset="1" stop-color="#4a96fb"></stop> </linearGradient> <linearGradient id="linear-gradient-20" x1="1568.12" y1="385.78" x2="1568.12" y2="298.43" gradientTransform="matrix(-1, 0, 0, 1, 3136.24, 0)" gradientUnits="userSpaceOnUse"> <stop offset="0" stop-color="#2742ab"></stop> <stop offset="0.27" stop-color="#2f54bd"></stop> <stop offset="0.81" stop-color="#4384ea"></stop> <stop offset="1" stop-color="#4a96fb"></stop> </linearGradient> <linearGradient id="linear-gradient-21" x1="1120.79" y1="348.28" x2="1120.79" y2="299.17" gradientTransform="matrix(1, 0, 0, 1, 0, 0)" xlink:href="#linear-gradient-20"></linearGradient> <linearGradient id="linear-gradient-22" x1="2989.95" y1="291.48" x2="2989.95" y2="242.37" gradientTransform="matrix(1, 0, 0, 1, 0, 0)" xlink:href="#linear-gradient-20"></linearGradient> <linearGradient id="linear-gradient-23" x1="2624.73" y1="248.13" x2="2624.73" y2="199.02" gradientTransform="matrix(-1, 0, 0, 1, 5249.47, 0)" xlink:href="#linear-gradient-20"></linearGradient> <linearGradient id="linear-gradient-24" x1="1657.39" y1="542.67" x2="1752.66" y2="542.67" xlink:href="#linear-gradient"></linearGradient> <linearGradient id="linear-gradient-25" x1="-1239.65" y1="-1535.56" x2="-1082.53" y2="-1535.56" gradientTransform="translate(1470.23 -1094.27) rotate(180)" xlink:href="#linear-gradient"></linearGradient> <linearGradient id="linear-gradient-26" x1="228.72" y1="459.17" x2="512.65" y2="459.17" gradientUnits="userSpaceOnUse"> <stop offset="0" stop-color="#2742ab"></stop> <stop offset="0.06" stop-color="#315bc3"></stop> <stop offset="0.12" stop-color="#3a71d7"></stop> <stop offset="0.2" stop-color="#4182e7"></stop> <stop offset="0.3" stop-color="#468df3"></stop> <stop offset="0.43" stop-color="#4994f9"></stop> <stop offset="0.81" stop-color="#4a96fb"></stop> </linearGradient> <linearGradient id="linear-gradient-27" x1="402.15" y1="265.04" x2="402.15" y2="347.57" xlink:href="#linear-gradient-19"></linearGradient> <linearGradient id="linear-gradient-28" x1="2565.52" y1="-34.28" x2="2560" y2="832.1" gradientUnits="userSpaceOnUse"> <stop offset="0.7" stop-color="#46bd85"></stop> <stop offset="0.82" stop-color="#399b61"></stop> <stop offset="0.91" stop-color="#32874c"></stop> </linearGradient> <linearGradient id="linear-gradient-29" x1="1142.87" y1="-1705.31" x2="1311.84" y2="-1705.31" gradientTransform="translate(2369.33 -1243.16) rotate(180)" gradientUnits="userSpaceOnUse"> <stop offset="0" stop-color="#32874c"></stop> <stop offset="0.08" stop-color="#399a60"></stop> <stop offset="0.18" stop-color="#3faa71"></stop> <stop offset="0.31" stop-color="#43b57c"></stop> <stop offset="0.49" stop-color="#45bb83"></stop> <stop offset="0.98" stop-color="#46bd85"></stop> </linearGradient> <linearGradient id="linear-gradient-30" x1="1434.57" y1="479.09" x2="1422.38" y2="504.71" gradientTransform="matrix(-1, 0, 0, 1, 2657.25, 0)" gradientUnits="userSpaceOnUse"> <stop offset="0" stop-color="#4a96fb"></stop> <stop offset="1" stop-color="#2742ab"></stop> </linearGradient> <clipPath id="clip-path"> <path class="cls-1" d="M1215.1,485.84s-3.62,5.11-6,39.4h10l1.4-34.38,6.36,34.47L1239,525s-9.32-35.29-12.44-38.09Z"></path> </clipPath> <linearGradient id="linear-gradient-31" x1="1650.79" y1="-1545.2" x2="1721.16" y2="-1545.2" gradientTransform="translate(4029.73 -1029.4) rotate(180)" xlink:href="#linear-gradient-29"></linearGradient> <linearGradient id="linear-gradient-32" x1="1049.13" y1="-1588.14" x2="1119.5" y2="-1588.14" gradientTransform="translate(2168.64 -1081.78) rotate(180)" xlink:href="#linear-gradient-29"></linearGradient> <linearGradient id="linear-gradient-33" x1="831.64" y1="-1589.77" x2="1025.85" y2="-1589.77" gradientTransform="translate(1733.65 -1085.06) rotate(180)" gradientUnits="userSpaceOnUse"> <stop offset="0" stop-color="#32874c"></stop> <stop offset="0.08" stop-color="#379459"></stop> <stop offset="0.22" stop-color="#3da66d"></stop> <stop offset="0.39" stop-color="#42b37b"></stop> <stop offset="0.6" stop-color="#45bb83"></stop> <stop offset="0.98" stop-color="#46bd85"></stop> </linearGradient> <linearGradient id="linear-gradient-34" x1="753.25" y1="335.35" x2="753.25" y2="118.02" gradientUnits="userSpaceOnUse"> <stop offset="0.29" stop-color="#2742ab"></stop> <stop offset="0.45" stop-color="#325ec5"></stop> <stop offset="0.68" stop-color="#3f7ce3"></stop> <stop offset="0.87" stop-color="#478ff5"></stop> <stop offset="1" stop-color="#4a96fb"></stop> </linearGradient> <linearGradient id="linear-gradient-35" x1="2464.12" y1="376.1" x2="2460.74" y2="199.66" gradientUnits="userSpaceOnUse"> <stop offset="0.19" stop-color="#2742ab"></stop> <stop offset="0.41" stop-color="#2f54bd"></stop> <stop offset="0.85" stop-color="#4384ea"></stop> <stop offset="1" stop-color="#4a96fb"></stop> </linearGradient> <linearGradient id="linear-gradient-36" x1="2604.35" y1="494.41" x2="2674.72" y2="494.41" gradientTransform="matrix(1, 0, 0, 1, 0, 0)" xlink:href="#linear-gradient-29"></linearGradient> <linearGradient id="linear-gradient-38" x1="1180.82" y1="568.84" x2="1215.95" y2="568.84" xlink:href="#linear-gradient-9"></linearGradient> <linearGradient id="linear-gradient-39" x1="1876.37" y1="457" x2="1865.07" y2="476.63" gradientUnits="userSpaceOnUse"> <stop offset="0" stop-color="#642dba"></stop> <stop offset="0.03" stop-color="#672ebf"></stop> <stop offset="0.25" stop-color="#7837db"></stop> <stop offset="0.47" stop-color="#833cef"></stop> <stop offset="0.7" stop-color="#8b40fb"></stop> <stop offset="0.92" stop-color="#8d41ff"></stop> </linearGradient> <linearGradient id="linear-gradient-40" x1="848.65" y1="-754.81" x2="871.06" y2="-754.81" gradientTransform="translate(2753 1183.34) rotate(-98.57)" xlink:href="#linear-gradient-29"></linearGradient> <linearGradient id="linear-gradient-41" x1="1925.05" y1="430.14" x2="1934.66" y2="417.48" gradientUnits="userSpaceOnUse"> <stop offset="0" stop-color="#a8260c"></stop> <stop offset="0.07" stop-color="#b32d0f"></stop> <stop offset="0.27" stop-color="#ca3c14"></stop> <stop offset="0.48" stop-color="#db4618"></stop> <stop offset="0.71" stop-color="#e54c1a"></stop> <stop offset="1" stop-color="#e84e1b"></stop> </linearGradient> <linearGradient id="linear-gradient-42" x1="1918.25" y1="451.38" x2="1943.34" y2="451.38" xlink:href="#linear-gradient"></linearGradient> <linearGradient id="linear-gradient-43" x1="1710.66" y1="420.95" x2="1730.01" y2="436.05" gradientTransform="matrix(-1, 0, 0, 1, 3632.25, 0)" gradientUnits="userSpaceOnUse"> <stop offset="0.5" stop-color="#ffd548"></stop> <stop offset="1" stop-color="#db3f32"></stop> </linearGradient> <linearGradient id="linear-gradient-44" x1="2029.27" y1="505.7" x2="1804.99" y2="505.7" gradientTransform="matrix(1, 0, 0, 1, 0, 0)" xlink:href="#linear-gradient-29"></linearGradient> <linearGradient id="linear-gradient-45" x1="1977.16" y1="-1550.09" x2="2047.53" y2="-1550.09" gradientTransform="translate(4029.73 -1029.4) rotate(180)" xlink:href="#linear-gradient-29"></linearGradient> <linearGradient id="linear-gradient-46" x1="352.14" y1="931.87" x2="352.14" y2="362.44" xlink:href="#linear-gradient-17"></linearGradient> <linearGradient id="linear-gradient-47" x1="2983.09" y1="-1600.08" x2="3053.46" y2="-1600.08" gradientTransform="translate(6020.88 -1105.67) rotate(180)" xlink:href="#linear-gradient-29"></linearGradient> <linearGradient id="linear-gradient-49" x1="939.92" y1="-1539.85" x2="1010.29" y2="-1539.85" gradientTransform="translate(4029.73 -1029.4) rotate(180)" xlink:href="#linear-gradient-29"></linearGradient> <linearGradient id="linear-gradient-50" x1="1272.08" y1="-1602.77" x2="1466.29" y2="-1602.77" xlink:href="#linear-gradient-33"></linearGradient> </defs> <path class="cls-2" d="M359.63,399.57a19.87,19.87,0,0,1,39.73,0"></path> <path class="cls-2" d="M188.89,399.57a19.87,19.87,0,0,1,39.73,0"></path> <path class="cls-2" d="M175.21,399.57a11.71,11.71,0,0,1,23.41,0"></path> <path class="cls-2" d="M210.07,399.57a44.68,44.68,0,0,1,89.35,0"></path> <path class="cls-2" d="M265,399.57a52.55,52.55,0,0,1,105.1,0"></path> <rect class="cls-3" x="3019.35" y="336.58" width="168.05" height="233.36"></rect> <path class="cls-2" d="M2966,370.61a23.58,23.58,0,0,0-15.61,5.9,41.81,41.81,0,0,0-53.22-21.1,66.1,66.1,0,0,0-113.57,11.37,41.81,41.81,0,0,0-68.17,7.45,23.66,23.66,0,0,0-36.24,20.07h310.5A23.69,23.69,0,0,0,2966,370.61Z"></path> <rect class="cls-4" x="3122.56" y="354.88" width="10.75" height="15.91"></rect> <rect class="cls-5" x="3098.12" y="354.88" width="10.75" height="15.91"></rect> <rect class="cls-5" x="3122.56" y="436.85" width="10.75" height="15.91"></rect> <rect class="cls-5" x="3098.12" y="436.85" width="10.75" height="15.91"></rect> <rect class="cls-4" x="3122.56" y="464.94" width="10.75" height="15.91"></rect> <rect class="cls-5" x="3098.12" y="464.94" width="10.75" height="15.91"></rect> <rect class="cls-5" x="3147.13" y="436.85" width="10.75" height="15.91"></rect> <rect class="cls-5" x="3147.13" y="464.94" width="10.75" height="15.91"></rect> <rect class="cls-4" x="3073.1" y="436.85" width="10.75" height="15.91"></rect> <rect class="cls-4" x="3048.66" y="436.85" width="10.75" height="15.91"></rect> <rect class="cls-5" x="3073.1" y="464.94" width="10.75" height="15.91"></rect> <rect class="cls-5" x="3048.66" y="464.94" width="10.75" height="15.91"></rect> <rect class="cls-5" x="3146.79" y="354.88" width="10.75" height="15.91"></rect> <rect class="cls-4" x="3073.89" y="354.88" width="10.75" height="15.91"></rect> <rect class="cls-5" x="3049.46" y="354.88" width="10.75" height="15.91"></rect> <rect class="cls-4" x="3122.56" y="384.81" width="10.75" height="15.91"></rect> <rect class="cls-5" x="3098.12" y="384.81" width="10.75" height="15.91"></rect> <rect class="cls-5" x="3146.79" y="384.81" width="10.75" height="15.91"></rect> <rect class="cls-4" x="3073.89" y="384.81" width="10.75" height="15.91"></rect> <rect class="cls-5" x="3049.46" y="384.81" width="10.75" height="15.91"></rect> <rect class="cls-5" x="3098.12" y="354.88" width="10.75" height="15.91"></rect> <rect class="cls-6" x="3088.87" y="323.4" width="47.89" height="13.31"></rect> <rect class="cls-6" x="3149.46" y="312.75" width="5.97" height="23.97"></rect> <rect class="cls-6" x="3159.25" y="320.88" width="5.97" height="15.84"></rect> <rect class="cls-6" x="3039.44" y="320.88" width="5.97" height="15.84"></rect> <line class="cls-7" x1="3019.72" y1="376.47" x2="3187.34" y2="376.47"></line> <line class="cls-7" x1="3019.72" y1="370.98" x2="3187.34" y2="370.98"></line> <line class="cls-7" x1="3019.72" y1="406.66" x2="3187.34" y2="406.66"></line> <rect class="cls-4" x="2687.24" y="302.23" width="6.61" height="91.49"></rect> <rect class="cls-4" x="2663.22" y="312.83" width="21.08" height="10.61"></rect> <rect class="cls-8" x="780.47" y="348.07" width="219.95" height="251.51"></rect> <rect class="cls-6" x="2620.93" y="318.37" width="85.04" height="29.54"></rect> <rect class="cls-9" x="483.69" y="350.26" width="168.05" height="233.36"></rect> <rect class="cls-4" x="586.9" y="368.56" width="10.75" height="15.91"></rect> <rect class="cls-5" x="562.47" y="368.56" width="10.75" height="15.91"></rect> <rect class="cls-5" x="586.9" y="424.99" width="10.75" height="15.91"></rect> <rect class="cls-5" x="562.47" y="424.99" width="10.75" height="15.91"></rect> <rect class="cls-5" x="586.9" y="450.53" width="10.75" height="15.91"></rect> <rect class="cls-5" x="562.47" y="450.53" width="10.75" height="15.91"></rect> <rect class="cls-5" x="586.9" y="478.63" width="10.75" height="15.91"></rect> <rect class="cls-5" x="562.47" y="478.63" width="10.75" height="15.91"></rect> <rect class="cls-5" x="537.44" y="424.99" width="10.75" height="15.91"></rect> <rect class="cls-5" x="513.01" y="424.99" width="10.75" height="15.91"></rect> <rect class="cls-4" x="537.44" y="450.53" width="10.75" height="15.91"></rect> <rect class="cls-4" x="513.01" y="450.53" width="10.75" height="15.91"></rect> <rect class="cls-5" x="537.44" y="478.63" width="10.75" height="15.91"></rect> <rect class="cls-5" x="513.01" y="478.63" width="10.75" height="15.91"></rect> <rect class="cls-5" x="611.13" y="368.56" width="10.75" height="15.91"></rect> <rect class="cls-4" x="538.23" y="368.56" width="10.75" height="15.91"></rect> <rect class="cls-5" x="513.8" y="368.56" width="10.75" height="15.91"></rect> <rect class="cls-5" x="562.47" y="368.56" width="10.75" height="15.91"></rect> <rect class="cls-6" x="553.22" y="337.09" width="47.89" height="13.31"></rect> <rect class="cls-6" x="80.2" y="320.49" width="47.89" height="13.31"></rect> <rect class="cls-6" x="613.8" y="326.43" width="5.97" height="23.97"></rect> <rect class="cls-6" x="14.41" y="307.88" width="5.97" height="23.97"></rect> <rect class="cls-6" x="26.37" y="312.97" width="5.97" height="23.97"></rect> <rect class="cls-6" x="623.6" y="334.56" width="5.97" height="15.84"></rect> <rect class="cls-6" x="503.79" y="334.56" width="5.97" height="15.84"></rect> <polyline class="cls-4" points="689.86 575.84 689.86 395.58 607.43 395.58 607.43 576.65 689.09 576.65"></polyline> <polygon class="cls-10" points="780.35 423.99 780.35 577.27 689.88 577.27 689.88 521.16 689.88 422.95 780.35 423.99"></polygon> <rect class="cls-5" x="654.21" y="508.07" width="10.75" height="41.06"></rect> <rect class="cls-4" x="671.09" y="380.06" width="6.61" height="91.49"></rect> <rect class="cls-11" x="951.66" y="335.41" width="27.41" height="35.37"></rect> <rect class="cls-5" x="654.21" y="424.5" width="10.75" height="15.91"></rect> <rect class="cls-5" x="728" y="470.54" width="10.75" height="15.91"></rect> <rect class="cls-4" x="700.16" y="470.54" width="7.48" height="15.91"></rect> <rect class="cls-4" x="747.04" y="470.54" width="10.75" height="15.91"></rect> <rect class="cls-5" x="764.76" y="470.54" width="10.75" height="15.91"></rect> <rect class="cls-6" x="629.78" y="424.5" width="10.75" height="15.91"></rect> <rect class="cls-5" x="654.21" y="451.86" width="10.75" height="15.91"></rect> <rect class="cls-5" x="629.78" y="451.86" width="10.75" height="15.91"></rect> <rect class="cls-6" x="654.21" y="479.23" width="10.75" height="15.91"></rect> <rect class="cls-5" x="629.78" y="479.23" width="10.75" height="15.91"></rect> <rect class="cls-4" x="603.82" y="395.59" width="89.27" height="6.52"></rect> <polygon class="cls-12" points="780.4 450.32 721.39 450.32 690.1 422.52 780.4 422.52 780.4 450.32"></polygon> <polygon class="cls-6" points="999.73 422.11 889.28 348.78 780.69 422.11 780.69 347.59 1000.26 347.59 999.73 422.11"></polygon> <rect class="cls-13" x="2706.22" y="392.24" width="181.24" height="148.31"></rect> <rect class="cls-12" x="2833.84" y="381.82" width="36.03" height="29.14"></rect> <rect class="cls-4" x="1377.96" y="405.62" width="6.61" height="91.49"></rect> <rect class="cls-4" x="1554.71" y="383.55" width="6.61" height="91.49"></rect> <path class="cls-12" d="M976.57,545.35S1066,367.08,1249.69,421.59c190.51,56.52,305.66-4.19,384.22-43.57,50.19-25.15,101.59-23.9,233.06,53.79s161.35-179.28,403.37-167.33S2554.19,533.4,2554.19,533.4Z"></path> <rect class="cls-6" x="2181.49" y="331.4" width="6.61" height="91.49"></rect> <rect class="cls-6" x="2345.03" y="331.4" width="6.61" height="91.49"></rect> <rect class="cls-6" x="2086.54" y="300.1" width="34.24" height="35.37"></rect> <rect class="cls-6" x="2194.62" y="324.89" width="6.61" height="91.49"></rect> <rect class="cls-14" x="2161.74" y="350.26" width="219.95" height="233.36"></rect> <rect class="cls-15" x="1665.13" y="456.58" width="176.05" height="120.79"></rect> <rect class="cls-6" x="1358.22" y="368.11" width="19.55" height="32.53"></rect> <rect class="cls-6" x="1252.1" y="376.17" width="167.93" height="201.2"></rect> <polygon class="cls-11" points="1420.98 413.37 1292.18 413.37 1252.1 376.05 1420.03 376.05 1420.98 413.37"></polygon> <rect class="cls-5" x="1665.13" y="418.14" width="176.05" height="38.61"></rect> <polyline class="cls-4" points="2464.18 575.84 2464.18 395.58 2381.75 395.58 2381.75 576.65 2463.42 576.65"></polyline> <rect class="cls-5" x="2404.43" y="508.07" width="10.75" height="41.06"></rect> <rect class="cls-4" x="2445.41" y="380.06" width="6.61" height="91.49"></rect> <rect class="cls-5" x="2428.53" y="424.5" width="10.75" height="15.91"></rect> <rect class="cls-6" x="2404.1" y="424.5" width="10.75" height="15.91"></rect> <rect class="cls-5" x="2428.53" y="451.86" width="10.75" height="15.91"></rect> <rect class="cls-5" x="2404.1" y="451.86" width="10.75" height="15.91"></rect> <rect class="cls-6" x="2428.53" y="479.23" width="10.75" height="15.91"></rect> <rect class="cls-5" x="2404.1" y="479.23" width="10.75" height="15.91"></rect> <line class="cls-16" x1="2381.36" y1="402.37" x2="2468.88" y2="402.37"></line> <polyline class="cls-11" points="3241.86 575.84 3241.86 395.58 3187.16 395.58 3187.16 576.65 3241.36 576.65"></polyline> <polyline class="cls-4" points="1856.09 575.84 1856.09 395.58 1773.66 395.58 1773.66 576.65 1855.33 576.65"></polyline> <polygon class="cls-17" points="1856.12 576.56 1856.12 473.45 1946.58 473.45 1946.58 511.2 1946.58 577.27 1856.12 576.56"></polygon> <path class="cls-5" d="M1873.74,488.94h0a6.51,6.51,0,0,1,6.51,6.51v31a0,0,0,0,1,0,0h-13a0,0,0,0,1,0,0v-31a6.51,6.51,0,0,1,6.51-6.51Z"></path> <path class="cls-5" d="M1907.57,488.94h0a6.51,6.51,0,0,1,6.51,6.51v31a0,0,0,0,1,0,0h-13a0,0,0,0,1,0,0v-31a6.51,6.51,0,0,1,6.51-6.51Z"></path> <path class="cls-5" d="M1941.81,488.94h0a6.51,6.51,0,0,1,6.51,6.51v31a0,0,0,0,1,0,0h-13a0,0,0,0,1,0,0v-31A6.51,6.51,0,0,1,1941.81,488.94Z"></path> <polygon class="cls-4" points="1393.82 577.49 1319.54 577.49 1319.54 423.24 1356.21 397.25 1393.82 423.24 1393.82 577.49"></polygon> <rect class="cls-4" x="1380.15" y="399.74" width="6.61" height="91.49"></rect> <rect class="cls-4" x="2323.1" y="368.56" width="10.75" height="15.91"></rect> <rect class="cls-5" x="2298.66" y="368.56" width="10.75" height="15.91"></rect> <rect class="cls-5" x="2347.33" y="368.56" width="10.75" height="15.91"></rect> <rect class="cls-5" x="2347.33" y="397.48" width="10.75" height="15.91"></rect> <rect class="cls-4" x="2347.33" y="424.1" width="10.75" height="15.91"></rect> <rect class="cls-6" x="1650.64" y="428.93" width="6.61" height="91.49"></rect> <path class="cls-2" d="M1924.53,577.42a10,10,0,1,1,20,0"></path> <path class="cls-2" d="M1804.07,577.42a34,34,0,0,1,67.93,0"></path> <path class="cls-2" d="M1845.86,577.42a40,40,0,1,1,79.9,0"></path> <rect class="cls-4" x="1837.32" y="380.06" width="6.61" height="91.49"></rect> <rect class="cls-18" x="1580.17" y="474.96" width="98.22" height="102.41"></rect> <polygon class="cls-19" points="1678.56 437.61 1580.83 437.89 1580.25 475.01 1678.35 475.01 1678.56 437.61"></polygon> <rect class="cls-5" x="269.52" y="385.63" width="6.61" height="91.49"></rect> <rect class="cls-5" x="212.17" y="394.14" width="27.92" height="7.4"></rect> <rect class="cls-20" x="198.32" y="435.87" width="98.95" height="102.41"></rect> <polygon class="cls-5" points="297.44 398.52 198.98 398.86 198.4 444.04 297.23 444.04 297.44 398.52"></polygon> <rect class="cls-4" x="2982.16" y="345.23" width="8.92" height="123.34"></rect> <rect class="cls-5" x="2887.15" y="407.28" width="132.42" height="138.08"></rect> <polygon class="cls-4" points="3019.8 356.93 2888.03 357.31 2887.26 407.36 3019.51 407.36 3019.8 356.93"></polygon> <rect class="cls-7" x="1561.31" y="567.41" width="38.66" height="3.48" transform="translate(3161.28 1138.29) rotate(-180)"></rect> <rect class="cls-7" x="1561.31" y="563.93" width="33.85" height="3.48" transform="translate(3156.47 1131.34) rotate(-180)"></rect> <rect class="cls-7" x="1561.31" y="560.46" width="28.57" height="3.48" transform="translate(3151.2 1124.39) rotate(-180)"></rect> <rect class="cls-7" x="1569.35" y="570.88" width="35.41" height="3.48" transform="translate(3174.1 1145.24) rotate(-180)"></rect> <rect class="cls-7" x="1569.35" y="574.36" width="40.18" height="3.48" transform="translate(3178.88 1152.19) rotate(-180)"></rect> <rect class="cls-21" x="1393.82" y="394.86" width="186.81" height="182.51"></rect> <rect class="cls-11" x="1131.03" y="470.32" width="188.35" height="103.15"></rect> <rect class="cls-22" x="1303.67" y="545.56" width="38.66" height="3.48"></rect> <rect class="cls-22" x="1308.48" y="542.08" width="33.85" height="3.48"></rect> <rect class="cls-22" x="1313.76" y="538.61" width="28.57" height="3.48"></rect> <rect class="cls-22" x="1298.89" y="549.03" width="35.41" height="3.48"></rect> <rect class="cls-22" x="1294.11" y="552.51" width="40.18" height="3.48"></rect> <rect class="cls-22" x="1294.11" y="555.98" width="40.18" height="3.48"></rect> <rect class="cls-22" x="1294.11" y="559.46" width="40.18" height="3.48"></rect> <rect class="cls-6" x="1946.36" y="313.34" width="186.81" height="264.04"></rect> <path class="cls-5" d="M1542.55,525.47h0A20.52,20.52,0,0,1,1563.07,546v31.49a0,0,0,0,1,0,0h-41a0,0,0,0,1,0,0V546a20.52,20.52,0,0,1,20.52-20.52Z"></path> <rect class="cls-5" x="1623.07" y="495.14" width="10.75" height="15.91"></rect> <rect class="cls-5" x="1647.5" y="495.14" width="10.75" height="15.91"></rect> <rect class="cls-5" x="1598.63" y="495.14" width="10.75" height="15.91"></rect> <rect class="cls-5" x="1559.81" y="495.14" width="10.75" height="15.91"></rect> <rect class="cls-5" x="984.2" y="385.52" width="6.61" height="91.49"></rect> <rect class="cls-5" x="971.17" y="394.65" width="6.61" height="91.49"></rect> <rect class="cls-6" x="1072.75" y="397.72" width="47.89" height="13.31"></rect> <rect class="cls-5" x="1509.16" y="495.14" width="10.75" height="15.91"></rect> <rect class="cls-4" x="1458.5" y="495.14" width="10.75" height="15.91"></rect> <rect class="cls-5" x="1407.84" y="495.14" width="10.75" height="15.91"></rect> <rect class="cls-5" x="1458.5" y="528.47" width="10.75" height="15.91"></rect> <rect class="cls-5" x="1407.84" y="528.47" width="10.75" height="15.91"></rect> <rect class="cls-5" x="1623.07" y="522.51" width="10.75" height="15.91"></rect> <rect class="cls-6" x="1647.5" y="522.51" width="10.75" height="15.91"></rect> <rect class="cls-5" x="1622.46" y="548.23" width="11.77" height="29.44"></rect> <rect class="cls-5" x="1338.57" y="548.23" width="11.77" height="29.44"></rect> <rect class="cls-5" x="1598.63" y="522.51" width="10.75" height="15.91"></rect> <rect class="cls-5" x="1363.03" y="467.96" width="10.75" height="15.91"></rect> <rect class="cls-5" x="1338.6" y="467.96" width="10.75" height="15.91"></rect> <rect class="cls-5" x="1363.03" y="495.33" width="10.75" height="15.91"></rect> <rect class="cls-5" x="1338.6" y="495.33" width="10.75" height="15.91"></rect> <path class="cls-23" d="M1808.22,586.88l-4.23-5.35-7.3-3.88,5.44-2.28a17.4,17.4,0,0,1,5.12,4,19,19,0,0,1,3.91,7.9"></path> <rect class="cls-5" x="1363.03" y="440.59" width="10.75" height="15.91"></rect> <rect class="cls-5" x="1338.6" y="440.59" width="10.75" height="15.91"></rect> <rect class="cls-5" x="1363.03" y="467.96" width="10.75" height="15.91"></rect> <rect class="cls-6" x="1338.6" y="467.96" width="10.75" height="15.91"></rect> <path class="cls-2" d="M1774.13,577.48a19.3,19.3,0,1,1,38.59,0"></path> <path class="cls-11" d="M1788.08,571.36s1.68-2.2,6.79-.68,12.44,7.58,12.44,7.58l-5.89,4.58-11-7.82Z"></path> <circle class="cls-24" cx="1788.07" cy="563.39" r="1.95"></circle> <circle class="cls-24" cx="1785.72" cy="563.55" r="1.95"></circle> <circle class="cls-24" cx="1789.26" cy="566.06" r="1.95"></circle> <circle class="cls-24" cx="1789.14" cy="569.56" r="2.3"></circle> <circle class="cls-24" cx="1789.3" cy="573.39" r="2.3"></circle> <circle class="cls-24" cx="1788.98" cy="576.67" r="2.3"></circle> <path class="cls-23" d="M1786.48,574.32h0a2.39,2.39,0,0,0,1.64-3l-.29-3-5,2.19.73,2.27A2.39,2.39,0,0,0,1786.48,574.32Z"></path> <path class="cls-23" d="M1780.66,568.2c.81,3,2.38,4.81,4.57,4.1s3.74-4.47,3-6.66a3.83,3.83,0,0,0-4.92-2.69A4.25,4.25,0,0,0,1780.66,568.2Z"></path> <path class="cls-23" d="M1781.64,573.59s-1.75.36-4.54,4.5c-2.54,3.77-14.07,8.51-14.07,8.51s1.34,1.57,2.76,2.94c0,0,15.31-4.39,16.94-11.69Z"></path> <path class="cls-23" d="M1763,586.6l-5.19.11s-.93,1.79,8,2.83Z"></path> <path class="cls-23" d="M1765.79,589.54c-.54.49-4.26.62-4.26.62a7.73,7.73,0,0,1,2.5-1.25A2,2,0,0,1,1765.79,589.54Z"></path> <path class="cls-24" d="M1780.63,566.06s.18.08,1.43-1.36c0,0,4.44,1.85,6.08,2.35,0,0,1.12-2.53-1.89-4.07A3.78,3.78,0,0,0,1780.63,566.06Z"></path> <ellipse class="cls-23" cx="1787.97" cy="567.49" rx="1.25" ry="0.91" transform="translate(860.27 2197.91) rotate(-77.97)"></ellipse> <path class="cls-25" d="M1782.14,573.45c-2.27.89-4,3.84-2.86,6l7.68,10.86,14.86-3-7.74-13.66c-.08-3.33-2.31-4.79-6-2.27h0s-1.66,2.9-4.51,1.51Z"></path> <path class="cls-11" d="M1774.09,587.19s7.12-3.15,9.39-7.86l.09-6.46s-2.9,0-6,3.76a19.24,19.24,0,0,1-6.24,5.16Z"></path> <path class="cls-26" d="M1834.09,593v-82.1s56.54,22.48,61.25,78.85C1895.34,589.76,1841.91,563.69,1834.09,593Z"></path> <path class="cls-6" d="M1790.23,609.21a1,1,0,0,0,.78.42h99.69a.93.93,0,0,0,.78-.42L1905,588.63a.93.93,0,0,0-.78-1.44H1777.48a.93.93,0,0,0-.78,1.44Z"></path> <line class="cls-7" x1="1906.92" y1="592.69" x2="1774.33" y2="592.69"></line> <polyline class="cls-27" points="1836.03 586.82 1836.24 512.22 1895.34 589.75"></polyline> <path class="cls-23" d="M1805.46,587.31h5.7S1809.37,592.69,1805.46,587.31Z"></path> <rect class="cls-6" x="1820.44" y="424.5" width="10.75" height="15.91"></rect> <rect class="cls-5" x="1796.01" y="424.5" width="10.75" height="15.91"></rect> <rect class="cls-5" x="1820.44" y="451.86" width="10.75" height="15.91"></rect> <rect class="cls-5" x="1796.01" y="451.86" width="10.75" height="15.91"></rect> <rect class="cls-5" x="1820.44" y="479.23" width="10.75" height="15.91"></rect> <rect class="cls-6" x="1796.01" y="479.23" width="10.75" height="15.91"></rect> <rect class="cls-28" x="954.7" y="406.15" width="186.18" height="171.23"></rect> <rect class="cls-29" x="0.13" y="328.6" width="143.59" height="235.85"></rect> <path class="cls-30" d="M1930.45,615.4c-31.71,0-31.71-13-63.42-13s-31.71,13-63.43,13-31.71-13-63.42-13-31.71,13-63.42,13-31.71-13-63.42-13-31.7,13-63.41,13-31.71-13-63.43-13-31.7,13-63.41,13-31.71-13-63.42-13v21h571.05Z"></path> <path class="cls-31" d="M-3.82,623.31H1441.57l-71.89-37.18c-67.28-34.79-139.73-52.74-212.93-52.74H-3.82Z"></path> <rect class="cls-11" x="2133.33" y="395.32" width="195.58" height="188.3"></rect> <path class="cls-2" d="M1358.29,577.5a13.49,13.49,0,0,1,27,0"></path> <path class="cls-2" d="M1627,577.5a13.49,13.49,0,0,1,27,0"></path> <path class="cls-2" d="M1555,577.5a8.27,8.27,0,0,1,16.54,0"></path> <path class="cls-2" d="M1570.38,577.5a7.61,7.61,0,1,1,15.22,0"></path> <path class="cls-2" d="M1614.57,577.5a7.61,7.61,0,1,1,15.22,0"></path> <path class="cls-32" d="M3242.12,581.12H2119l54.42-23.64A404.45,404.45,0,0,1,2334.64,524h907.48Z"></path> <path class="cls-33" d="M2178.09,226a13.37,13.37,0,0,0-3.82.56,23.81,23.81,0,0,0-28.72-9.21,37.62,37.62,0,0,0-62.23,2,28.58,28.58,0,0,0-42.46,2,18.69,18.69,0,0,0-21.94,9.71,13.47,13.47,0,0,0-24,8.38h196.68A13.48,13.48,0,0,0,2178.09,226Z"></path> <path class="cls-34" d="M1537.93,341.55a13.46,13.46,0,0,1,11,5.73,13.44,13.44,0,0,1,18.16-3.67A23.8,23.8,0,0,1,1611.79,355h-87.34A13.47,13.47,0,0,1,1537.93,341.55Z"></path> <path class="cls-35" d="M1137.77,323.41a7.58,7.58,0,0,0-6.2,3.22,7.55,7.55,0,0,0-10.21-2.06,13.38,13.38,0,0,0-25.12,6.42h49.11A7.59,7.59,0,0,0,1137.77,323.41Z"></path> <path class="cls-36" d="M3006.92,266.61a7.56,7.56,0,0,1-12.39,0,7.56,7.56,0,0,0-4,1.16,13.38,13.38,0,0,0-25.12,6.42h49.11A7.58,7.58,0,0,0,3006.92,266.61Z"></path> <path class="cls-2" d="M947.5,555.5a17.9,17.9,0,0,0-14.67,7.62,17.91,17.91,0,0,0-24.16-4.89,31.67,31.67,0,0,0-59.45,15.21H965.44A17.94,17.94,0,0,0,947.5,555.5Z"></path> <path class="cls-37" d="M2607.76,223.26a7.56,7.56,0,0,0,12.39,0,7.56,7.56,0,0,1,4,1.16,13.38,13.38,0,0,1,25.12,6.42h-49.11A7.58,7.58,0,0,1,2607.76,223.26Z"></path> <rect class="cls-6" x="1685.42" y="489.12" width="38.27" height="19.83"></rect> <rect class="cls-7" x="1711.81" y="492.53" width="8.8" height="20.1"></rect> <rect class="cls-38" x="1678.38" y="507.83" width="95.27" height="69.68"></rect> <rect class="cls-5" x="1683.04" y="488.06" width="42.55" height="2.14"></rect> <rect class="cls-1" x="1003.71" y="182.08" width="1232.14" height="441.28"></rect> <polyline class="cls-39" points="1722.03 499.19 1728.92 499.19 1738.43 508.46"></polyline> <line class="cls-39" x1="1728.92" y1="499.19" x2="1728.92" y2="508.22"></line> <line class="cls-39" x1="1733.44" y1="503.46" x2="1733.44" y2="508.22"></line> <rect class="cls-5" x="1684.96" y="565.22" width="19.14" height="2.14"></rect> <path class="cls-5" d="M1690.92,536.58h7.38a4.49,4.49,0,0,1,4.49,4.49v24.19a0,0,0,0,1,0,0h-16.37a0,0,0,0,1,0,0V541.07A4.49,4.49,0,0,1,1690.92,536.58Z"></path> <path class="cls-5" d="M1721.31,536.58h7.38a4.49,4.49,0,0,1,4.49,4.49v36.41a0,0,0,0,1,0,0h-16.37a0,0,0,0,1,0,0V541.07A4.49,4.49,0,0,1,1721.31,536.58Z"></path> <rect class="cls-5" x="1745.82" y="565.22" width="19.14" height="2.14"></rect> <path class="cls-5" d="M1751.79,536.58h7.38a4.49,4.49,0,0,1,4.49,4.49v26.17a0,0,0,0,1,0,0h-16.37a0,0,0,0,1,0,0V541.07A4.49,4.49,0,0,1,1751.79,536.58Z"></path> <path class="cls-2" d="M1489.33,577.5a23.8,23.8,0,1,1,47.6,0"></path> <path class="cls-2" d="M1653.07,577.5a8.27,8.27,0,0,1,16.54,0"></path> <path class="cls-2" d="M1398,577.5a23.8,23.8,0,0,1,47.6,0"></path> <path class="cls-2" d="M1380.34,577.5a13.48,13.48,0,0,1,27,0"></path> <rect class="cls-1" x="1004.83" y="128.11" width="1230.25" height="494.05"></rect> <polygon class="cls-40" points="2620.55 359.89 2620.55 523.81 2463.43 523.81 2463.43 463.8 2463.43 358.77 2620.55 359.89"></polygon> <rect class="cls-4" x="2518.2" y="418.05" width="91.17" height="25.44"></rect> <line class="cls-41" x1="2514.57" y1="437.42" x2="2612.8" y2="437.42"></line> <line class="cls-41" x1="2541.44" y1="416.77" x2="2541.44" y2="444.11"></line> <line class="cls-41" x1="2564.47" y1="416.77" x2="2564.47" y2="444.11"></line> <line class="cls-41" x1="2587.49" y1="416.77" x2="2587.49" y2="444.11"></line> <rect class="cls-5" x="2518.2" y="460.92" width="91.17" height="25.44"></rect> <rect class="cls-5" x="2586.85" y="498.17" width="22.52" height="25.44"></rect> <path class="cls-5" d="M2477.34,417.27h0a5.63,5.63,0,0,1,5.63,5.63v19.81a0,0,0,0,1,0,0h-11.26a0,0,0,0,1,0,0V422.9A5.63,5.63,0,0,1,2477.34,417.27Z"></path> <line class="cls-41" x1="2514.57" y1="480.29" x2="2612.8" y2="480.29"></line> <line class="cls-41" x1="2541.44" y1="459.64" x2="2541.44" y2="486.98"></line> <line class="cls-41" x1="2564.47" y1="459.64" x2="2564.47" y2="486.98"></line> <line class="cls-41" x1="2587.49" y1="459.64" x2="2587.49" y2="486.98"></line> <line class="cls-42" x1="1500.87" y1="459.14" x2="1500.87" y2="574.85"></line> <line class="cls-42" x1="1484.93" y1="459.82" x2="1484.93" y2="575.53"></line> <line class="cls-42" x1="1446.37" y1="459.82" x2="1446.37" y2="575.53"></line> <polygon class="cls-4" points="1393.82 394.86 1446.6 459.11 1580.5 459.11 1580.5 394.86 1393.82 394.86"></polygon> <rect class="cls-6" x="458.17" y="356.6" width="6.61" height="91.49"></rect> <rect class="cls-43" x="297.27" y="367.91" width="186.81" height="182.51"></rect> <polygon class="cls-11" points="297.27 367.91 350.05 432.16 484.25 431.93 484.08 367.91 297.27 367.91"></polygon> <polygon class="cls-5" points="1141.66 470.12 1178.13 514.52 1319.54 514.52 1319.54 470.12 1141.66 470.12"></polygon> <path class="cls-6" d="M1492.75,435.66h0a8.14,8.14,0,0,1,8.14,8.14v15.65a0,0,0,0,1,0,0h-16.29a0,0,0,0,1,0,0V443.8A8.14,8.14,0,0,1,1492.75,435.66Z"></path> <line class="cls-42" x1="1492.75" y1="435.66" x2="1492.75" y2="459.44"></line> <line class="cls-42" x1="1484.61" y1="443.8" x2="1500.9" y2="443.8"></line> <path class="cls-6" d="M1542.39,435.66h0a8.14,8.14,0,0,1,8.14,8.14v15.56a0,0,0,0,1,0,0h-16.29a0,0,0,0,1,0,0V443.8A8.14,8.14,0,0,1,1542.39,435.66Z"></path> <line class="cls-42" x1="1542.38" y1="435.66" x2="1542.38" y2="459.44"></line> <line class="cls-42" x1="1534.24" y1="443.8" x2="1550.53" y2="443.8"></line> <line class="cls-7" x1="1707.56" y1="489.57" x2="1707.56" y2="507.82"></line> <line class="cls-42" x1="1393.86" y1="459.46" x2="1580.5" y2="459.46"></line> <line class="cls-42" x1="1393.86" y1="518.54" x2="1580.5" y2="518.54"></line> <line class="cls-42" x1="1393.86" y1="511.59" x2="1580.5" y2="511.59"></line> <line class="cls-42" x1="1393.86" y1="454.9" x2="1580.5" y2="454.9"></line> <line class="cls-42" x1="1319.58" y1="422.74" x2="1393.99" y2="422.74"></line> <polygon class="cls-11" points="198.94 525.76 124.66 525.76 124.66 371.5 161.33 345.52 198.94 371.5 198.94 525.76"></polygon> <rect class="cls-11" x="185.26" y="348.01" width="6.61" height="91.49"></rect> <rect class="cls-5" x="168.15" y="416.23" width="10.75" height="15.91"></rect> <rect class="cls-5" x="143.71" y="416.23" width="10.75" height="15.91"></rect> <rect class="cls-5" x="168.15" y="443.59" width="10.75" height="15.91"></rect> <rect class="cls-5" x="143.71" y="443.59" width="10.75" height="15.91"></rect> <rect class="cls-5" x="168.15" y="388.86" width="10.75" height="15.91"></rect> <rect class="cls-5" x="143.71" y="388.86" width="10.75" height="15.91"></rect> <rect class="cls-5" x="168.15" y="416.23" width="10.75" height="15.91"></rect> <rect class="cls-4" x="143.71" y="416.23" width="10.75" height="15.91"></rect> <line class="cls-7" x1="124.69" y1="371.99" x2="199.11" y2="372.02"></line> <line class="cls-42" x1="954.55" y1="455.87" x2="1141.2" y2="455.87"></line> <line class="cls-7" x1="1772.12" y1="402.52" x2="1858.72" y2="402.52"></line> <rect class="cls-4" x="1770.05" y="395.59" width="89.27" height="6.52"></rect> <path class="cls-44" d="M426,278.11a17.34,17.34,0,0,0-14.71,8.15,15.71,15.71,0,0,0-25.68.32,9.15,9.15,0,0,0-2.47-.35,9.26,9.26,0,0,0-8.38,5.34,7.51,7.51,0,0,0-13.92,3.92h82.54A17.38,17.38,0,0,0,426,278.11Z"></path> <polygon class="cls-5" points="2134.12 394.89 2160.84 439.04 2189.89 439.04 2329.17 439.04 2329.17 395.32 2134.12 394.89"></polygon> <polygon class="cls-11" points="2463.47 358.4 2490.19 402.55 2519.24 402.55 2621.05 402.55 2621.05 358.83 2463.47 358.4"></polygon> <polygon class="cls-12" points="2706.19 392.36 2736.88 451.25 2770.24 451.25 2887.18 451.25 2887.18 392.94 2706.19 392.36"></polygon> <path class="cls-4" d="M2218,438.15c0-8.21-7.46-14.87-16.66-14.87s-16.66,6.66-16.66,14.87"></path> <path class="cls-4" d="M2264.62,438.15c0-8.21,7.45-14.87,16.66-14.87s16.66,6.66,16.66,14.87"></path> <line class="cls-7" x1="2133.22" y1="438.59" x2="2329.17" y2="438.59"></line> <line class="cls-7" x1="2133.22" y1="441.58" x2="2329.17" y2="441.58"></line> <line class="cls-7" x1="2133.22" y1="420.02" x2="2244.49" y2="420.02"></line> <line class="cls-7" x1="2201.33" y1="421.47" x2="2201.33" y2="438.15"></line> <line class="cls-7" x1="2281.43" y1="421.47" x2="2281.43" y2="438.15"></line> <line class="cls-42" x1="1980.9" y1="351.6" x2="1980.9" y2="577.7"></line> <line class="cls-42" x1="2099.48" y1="351.6" x2="2099.48" y2="577.7"></line> <polygon class="cls-4" points="2133.22 377.01 2037.26 313.48 1946.04 377.01 1946.04 313.34 2133.68 313.34 2133.22 377.01"></polygon> <path class="cls-5" d="M2072.82,514.74h0a13.79,13.79,0,0,1,13.79,13.79v58.29a0,0,0,0,1,0,0H2059a0,0,0,0,1,0,0V528.53a13.79,13.79,0,0,1,13.79-13.79Z"></path> <path class="cls-45" d="M3242.12,623.15H1880.55L1935,599.51A404.47,404.47,0,0,1,2096.17,566H3242.12Z"></path> <path class="cls-5" d="M1773.65,511.87h-95.2v-4h95.2Z"></path> <rect class="cls-4" x="2210.15" y="458.15" width="10.75" height="15.91"></rect> <rect class="cls-4" x="2185.72" y="458.15" width="10.75" height="15.91"></rect> <rect class="cls-4" x="2210.15" y="485.52" width="10.75" height="15.91"></rect> <rect class="cls-4" x="2185.72" y="485.52" width="10.75" height="15.91"></rect> <rect class="cls-5" x="2210.15" y="522.57" width="10.75" height="15.91"></rect> <rect class="cls-5" x="2185.72" y="522.57" width="10.75" height="15.91"></rect> <rect class="cls-5" x="2210.15" y="368.56" width="10.75" height="15.91"></rect> <rect class="cls-5" x="2185.72" y="368.56" width="10.75" height="15.91"></rect> <rect class="cls-5" x="2234.38" y="368.56" width="10.75" height="15.91"></rect> <rect class="cls-5" x="2288.43" y="458.15" width="10.75" height="15.91"></rect> <rect class="cls-5" x="2264" y="458.15" width="10.75" height="15.91"></rect> <rect class="cls-4" x="2288.43" y="485.52" width="10.75" height="15.91"></rect> <rect class="cls-5" x="2264" y="485.52" width="10.75" height="15.91"></rect> <line class="cls-42" x1="1507.58" y1="511.48" x2="1507.58" y2="518.73"></line> <line class="cls-42" x1="1514.42" y1="511.48" x2="1514.42" y2="518.73"></line> <line class="cls-42" x1="1521.26" y1="511.48" x2="1521.26" y2="518.73"></line> <line class="cls-42" x1="1558.73" y1="511.48" x2="1558.73" y2="518.73"></line> <line class="cls-42" x1="1565.57" y1="511.48" x2="1565.57" y2="518.73"></line> <line class="cls-42" x1="1572.41" y1="511.48" x2="1572.41" y2="518.73"></line> <path class="cls-2" d="M1436.34,577.5a37.63,37.63,0,1,1,75.25,0"></path> <line class="cls-42" x1="1946.04" y1="377.01" x2="1981.22" y2="377.01"></line> <line class="cls-42" x1="1856.12" y1="478.44" x2="1965.69" y2="478.44"></line> <line class="cls-42" x1="2099.41" y1="377.01" x2="2133.22" y2="377.01"></line> <line class="cls-7" x1="2133.22" y1="509.89" x2="2329.17" y2="509.89"></line> <line class="cls-7" x1="2133.22" y1="501.09" x2="2329.17" y2="501.09"></line> <line class="cls-7" x1="2179.4" y1="500.97" x2="2179.4" y2="510.26"></line> <line class="cls-7" x1="2186.24" y1="500.97" x2="2186.24" y2="510.26"></line> <line class="cls-7" x1="2193.08" y1="500.97" x2="2193.08" y2="510.26"></line> <line class="cls-7" x1="2200.03" y1="500.97" x2="2200.03" y2="510.26"></line> <line class="cls-7" x1="2206.87" y1="500.97" x2="2206.87" y2="510.26"></line> <line class="cls-7" x1="2213.71" y1="500.97" x2="2213.71" y2="510.26"></line> <line class="cls-7" x1="2220.55" y1="500.97" x2="2220.55" y2="510.26"></line> <line class="cls-7" x1="2227.5" y1="500.97" x2="2227.5" y2="510.26"></line> <line class="cls-7" x1="2257.59" y1="500.97" x2="2257.59" y2="510.26"></line> <line class="cls-7" x1="2264.43" y1="500.97" x2="2264.43" y2="510.26"></line> <line class="cls-7" x1="2271.27" y1="500.97" x2="2271.27" y2="510.26"></line> <line class="cls-7" x1="2278.22" y1="500.97" x2="2278.22" y2="510.26"></line> <line class="cls-7" x1="2285.06" y1="500.97" x2="2285.06" y2="510.26"></line> <line class="cls-7" x1="2291.9" y1="500.97" x2="2291.9" y2="510.26"></line> <line class="cls-7" x1="2298.74" y1="500.97" x2="2298.74" y2="510.26"></line> <line class="cls-7" x1="2305.69" y1="500.97" x2="2305.69" y2="510.26"></line> <rect class="cls-6" x="2283.17" y="337.09" width="47.89" height="13.31"></rect> <line class="cls-22" x1="2170.89" y1="602.46" x2="2170.89" y2="596.6"></line> <line class="cls-22" x1="2193.38" y1="602.46" x2="2193.38" y2="596.6"></line> <rect class="cls-4" x="2163.99" y="584.46" width="36.46" height="9.05"></rect> <line class="cls-22" x1="2164.9" y1="596.53" x2="2199.89" y2="596.53"></line> <line class="cls-22" x1="2430.46" y1="602.46" x2="2430.46" y2="596.6"></line> <line class="cls-22" x1="2452.96" y1="602.46" x2="2452.96" y2="596.6"></line> <rect class="cls-4" x="2423.56" y="584.46" width="36.46" height="9.05"></rect> <line class="cls-22" x1="2424.47" y1="596.53" x2="2459.46" y2="596.53"></line> <line class="cls-22" x1="2704.86" y1="602.46" x2="2704.86" y2="596.6"></line> <line class="cls-22" x1="2727.35" y1="602.46" x2="2727.35" y2="596.6"></line> <rect class="cls-4" x="2697.96" y="584.46" width="36.46" height="9.05"></rect> <line class="cls-22" x1="2698.87" y1="596.53" x2="2733.86" y2="596.53"></line> <line class="cls-22" x1="2098.58" y1="602.46" x2="2098.58" y2="596.6"></line> <line class="cls-22" x1="2121.07" y1="602.46" x2="2121.07" y2="596.6"></line> <rect class="cls-4" x="2091.68" y="584.46" width="36.46" height="9.05"></rect> <line class="cls-22" x1="2092.59" y1="596.53" x2="2127.58" y2="596.53"></line> <line class="cls-22" x1="1076.16" y1="602.46" x2="1076.16" y2="596.6"></line> <line class="cls-22" x1="1098.65" y1="602.46" x2="1098.65" y2="596.6"></line> <rect class="cls-4" x="1069.26" y="584.46" width="36.46" height="9.05"></rect> <line class="cls-22" x1="1070.17" y1="596.53" x2="1105.16" y2="596.53"></line> <line class="cls-22" x1="1023.38" y1="602.46" x2="1023.38" y2="596.6"></line> <line class="cls-22" x1="1045.88" y1="602.46" x2="1045.88" y2="596.6"></line> <rect class="cls-4" x="1016.48" y="584.46" width="36.46" height="9.05"></rect> <line class="cls-22" x1="1017.39" y1="596.53" x2="1052.38" y2="596.53"></line> <line class="cls-22" x1="886.38" y1="602.46" x2="886.38" y2="596.6"></line> <line class="cls-22" x1="908.87" y1="602.46" x2="908.87" y2="596.6"></line> <rect class="cls-4" x="879.48" y="584.46" width="36.46" height="9.05"></rect> <line class="cls-22" x1="880.38" y1="596.53" x2="915.37" y2="596.53"></line> <line class="cls-22" x1="755.88" y1="602.46" x2="755.88" y2="596.6"></line> <line class="cls-22" x1="778.38" y1="602.46" x2="778.38" y2="596.6"></line> <rect class="cls-4" x="748.98" y="584.46" width="36.46" height="9.05"></rect> <line class="cls-22" x1="749.89" y1="596.53" x2="784.88" y2="596.53"></line> <path class="cls-2" d="M2166.32,552.87a13.36,13.36,0,0,1,8.87,3.36,23.78,23.78,0,0,1,30.25-12A37.57,37.57,0,0,1,2270,550.7a23.76,23.76,0,0,1,38.74,4.23,13.45,13.45,0,0,1,20.6,11.41H2152.85A13.47,13.47,0,0,1,2166.32,552.87Z"></path> <path class="cls-11" d="M1231.82,515c0-8.21-7.46-14.87-16.66-14.87s-16.66,6.66-16.66,14.87"></path> <path class="cls-11" d="M1264,515c0-8.21,7.46-14.87,16.66-14.87s16.66,6.66,16.66,14.87"></path> <line class="cls-7" x1="1178.13" y1="514.52" x2="1319.54" y2="514.96"></line> <path class="cls-23" d="M1221.42,494.9a3.56,3.56,0,0,0-3.69,2.16h3.62a6.18,6.18,0,0,0,2.44-.49l2.22-.93"></path> <path class="cls-5" d="M2021.67,377.83h0a6.51,6.51,0,0,1,6.51,6.51V403.4a0,0,0,0,1,0,0h-13a0,0,0,0,1,0,0V384.34A6.51,6.51,0,0,1,2021.67,377.83Z"></path> <path class="cls-5" d="M2055.5,377.83h0a6.51,6.51,0,0,1,6.51,6.51V403.4a0,0,0,0,1,0,0h-13a0,0,0,0,1,0,0V384.34A6.51,6.51,0,0,1,2055.5,377.83Z"></path> <path class="cls-5" d="M2021.67,435.58h0a6.51,6.51,0,0,1,6.51,6.51v19.06a0,0,0,0,1,0,0h-13a0,0,0,0,1,0,0V442.08A6.51,6.51,0,0,1,2021.67,435.58Z"></path> <path class="cls-4" d="M2055.5,435.58h0a6.51,6.51,0,0,1,6.51,6.51v19.06a0,0,0,0,1,0,0h-13a0,0,0,0,1,0,0V442.08A6.51,6.51,0,0,1,2055.5,435.58Z"></path> <path class="cls-5" d="M2116.1,435.58h0a6.51,6.51,0,0,1,6.51,6.51v19.06a0,0,0,0,1,0,0h-13a0,0,0,0,1,0,0V442.08A6.51,6.51,0,0,1,2116.1,435.58Z"></path> <path class="cls-5" d="M1963.95,435.58h0a6.51,6.51,0,0,1,6.51,6.51v19.06a0,0,0,0,1,0,0h-13a0,0,0,0,1,0,0V442.08A6.51,6.51,0,0,1,1963.95,435.58Z"></path> <path class="cls-4" d="M1281.1,525.16h0a5.38,5.38,0,0,1,5.38,5.38v14.51a0,0,0,0,1,0,0h-10.75a0,0,0,0,1,0,0V530.54A5.38,5.38,0,0,1,1281.1,525.16Z"></path> <rect class="cls-5" x="997.37" y="429.66" width="10.75" height="15.91"></rect> <rect class="cls-5" x="972.94" y="429.66" width="10.75" height="15.91"></rect> <rect class="cls-5" x="1021.6" y="429.66" width="10.75" height="15.91"></rect> <rect class="cls-5" x="997.37" y="472.01" width="10.75" height="15.91"></rect> <rect class="cls-5" x="972.94" y="472.01" width="10.75" height="15.91"></rect> <rect class="cls-4" x="1021.6" y="472.01" width="10.75" height="15.91"></rect> <rect class="cls-4" x="1089.9" y="429.66" width="10.75" height="15.91"></rect> <rect class="cls-4" x="1065.46" y="429.66" width="10.75" height="15.91"></rect> <rect class="cls-5" x="1294.08" y="426.4" width="10.75" height="15.91"></rect> <rect class="cls-4" x="1294.08" y="449.2" width="10.75" height="15.91"></rect> <rect class="cls-5" x="1749.14" y="464.4" width="10.75" height="15.91"></rect> <rect class="cls-11" x="1739.94" y="411.53" width="19.91" height="6.63"></rect> <rect class="cls-4" x="1731.18" y="464.4" width="10.75" height="15.91"></rect> <rect class="cls-4" x="1114.13" y="429.66" width="10.75" height="15.91"></rect> <rect class="cls-5" x="12.34" y="347.23" width="10.75" height="15.91"></rect> <rect class="cls-4" x="12.34" y="389.58" width="10.75" height="15.91"></rect> <rect class="cls-4" x="12.34" y="431.93" width="10.75" height="15.91"></rect> <rect class="cls-5" x="80.64" y="347.23" width="10.75" height="15.91"></rect> <rect class="cls-4" x="56.2" y="347.23" width="10.75" height="15.91"></rect> <rect class="cls-4" x="104.87" y="347.23" width="10.75" height="15.91"></rect> <rect class="cls-4" x="80.64" y="390" width="10.75" height="15.91"></rect> <rect class="cls-5" x="56.2" y="390" width="10.75" height="15.91"></rect> <rect class="cls-5" x="104.87" y="390" width="10.75" height="15.91"></rect> <rect class="cls-5" x="56.2" y="432.58" width="10.75" height="15.91"></rect> <line class="cls-46" x1="1191.11" y1="559.93" x2="1191.11" y2="429.87"></line> <line class="cls-47" x1="2343.28" y1="606.19" x2="2343.28" y2="493.65"></line> <ellipse class="cls-48" cx="1191.27" cy="462.16" rx="35.19" ry="62.66"></ellipse> <line class="cls-42" x1="859.36" y1="429.87" x2="859.36" y2="544.02"></line> <line class="cls-42" x1="920.9" y1="429.87" x2="920.9" y2="532.18"></line> <path class="cls-23" d="M1228.52,525.13l1,3.07,3.25.31,5.06.24-.15-.11a10,10,0,0,0-2.19-1.11c-1.45-.54-3.94-1.75-4.43-3.85l-2.51,1.45"></path> <path class="cls-49" d="M1215.1,485.84l11.25,1.69,4.43-12.54c.52-2.39-2-4.75-4.39-5l-6.21-.18a4.08,4.08,0,0,0-4.49,4.12Z"></path> <path class="cls-23" d="M1223.29,472h0a2.4,2.4,0,0,0,2.5-2.39l.65-2.93-5.43.55v2.38A2.39,2.39,0,0,0,1223.29,472Z"></path> <path class="cls-23" d="M1219.64,464.38c-.15,3.12.78,5.32,3.08,5.32s5.26-3,5.26-5.32a4.17,4.17,0,0,0-4.17-4.16A4.24,4.24,0,0,0,1219.64,464.38Z"></path> <path class="cls-24" d="M1223.81,460.22a4.47,4.47,0,0,0,4.17,4.16A3.81,3.81,0,0,0,1223.81,460.22Z"></path> <circle class="cls-24" cx="1226.12" cy="459.78" r="2.03"></circle> <path class="cls-24" d="M1223.81,460.22a7.57,7.57,0,0,1-3.88,2.77S1219.86,460.57,1223.81,460.22Z"></path> <path class="cls-24" d="M1224.54,460.28s.11,1.84-4.61,2.71C1219.93,463,1220.59,460.63,1224.54,460.28Z"></path> <path class="cls-23" d="M1209,527.69l0,.42h9l.15-3.21-2.53-.45A14.18,14.18,0,0,1,1209,527.69Z"></path> <path class="cls-24" d="M1218.18,525.39l-.21,2.72h-9s-1.24-.84,6-1.19Z"></path> <path class="cls-24" d="M1229.49,528.2l-1-3.07s2,1.38,3.39,2.2l4.71.65s1,.23,1.18.77Z"></path> <path class="cls-50" d="M1215.1,485.84s-3.62,5.11-6,39.4h10l1.4-34.38,6.36,34.47L1239,525s-9.32-35.29-12.44-38.09Z"></path> <ellipse class="cls-23" cx="1227.71" cy="465.73" rx="1.25" ry="1.09" transform="translate(546.7 1588.4) rotate(-79.53)"></ellipse> <g class="cls-51"> <path class="cls-52" d="M1225.08,485.62s10.05,31.2,11.33,40.25"></path> <line class="cls-52" x1="1223.54" y1="485.87" x2="1233.47" y2="526.19"></line> <line class="cls-52" x1="1221.54" y1="485.38" x2="1229.44" y2="526.05"></line> <line class="cls-52" x1="1219.3" y1="485.01" x2="1216.94" y2="526.05"></line> <line class="cls-52" x1="1217.42" y1="485.25" x2="1213.88" y2="526.17"></line> <line class="cls-52" x1="1215.41" y1="485.13" x2="1210.58" y2="525.68"></line> </g> <circle class="cls-53" cx="1224.83" cy="465.22" r="1.73"></circle> <circle class="cls-53" cx="1220.73" cy="464.06" r="1.73"></circle> <path class="cls-6" d="M1225.79,469.61s17.67,2.59.22,26l-5.35-.8,7.35-12.45S1225.3,471.5,1225.79,469.61Z"></path> <path class="cls-23" d="M1204,467.29s.76-4.89-1.19-6.41c0,0-1.09,1.08-1.09,7.93Z"></path> <path class="cls-23" d="M1201.68,468.81l-1.52-3.7a3.63,3.63,0,0,1,2.5,2.83Z"></path> <path class="cls-6" d="M1221,469.61s-5-.91-11.35,7.72l-5.21-10.75-4.73,3.58s4.06,11,7.66,12.71C1211.62,484.82,1222.22,478.26,1221,469.61Z"></path> <polyline class="cls-54" points="1198.13 595.56 1215.07 496.56 1232.88 496.56 1237.65 596.75"></polyline> <line class="cls-54" x1="1202.02" y1="571.58" x2="1236.46" y2="571.58"></line> <line class="cls-54" x1="1204.34" y1="557.24" x2="1235.49" y2="557.24"></line> <line class="cls-54" x1="1206.83" y1="542.91" x2="1235.16" y2="542.91"></line> <line class="cls-54" x1="1209.91" y1="528.57" x2="1234.35" y2="528.57"></line> <path class="cls-2" d="M1333,589.75a13.37,13.37,0,0,0-8.88,3.36,23.77,23.77,0,0,0-30.24-12,37.57,37.57,0,0,0-64.55,6.47,23.77,23.77,0,0,0-38.75,4.23A13.44,13.44,0,0,0,1170,603.22h176.47A13.47,13.47,0,0,0,1333,589.75Z"></path> <ellipse class="cls-55" cx="2343.75" cy="515.8" rx="35.19" ry="62.66"></ellipse> <line class="cls-47" x1="2139.33" y1="574.92" x2="2139.33" y2="462.37"></line> <path class="cls-56" d="M2174.83,475.84a35.19,35.19,0,1,0-65.07,18.57,35.19,35.19,0,1,0,59.77,0A35,35,0,0,0,2174.83,475.84Z"></path> <path class="cls-2" d="M2174.83,475.84a35.19,35.19,0,1,0-65.07,18.57,35.19,35.19,0,1,0,59.77,0A35,35,0,0,0,2174.83,475.84Z"></path> <circle class="cls-5" cx="1356.29" cy="412.13" r="3.76"></circle> <line class="cls-7" x1="1275.24" y1="494.08" x2="1275.24" y2="514.53"></line> <line class="cls-42" x1="1047.84" y1="406.2" x2="1047.84" y2="519.4"></line> <line class="cls-7" x1="1287.75" y1="494.08" x2="1287.75" y2="514.53"></line> <line class="cls-47" x1="1083.85" y1="577.3" x2="1083.85" y2="477.58"></line> <line class="cls-47" x1="1131.17" y1="600.51" x2="1131.17" y2="519.63"></line> <path class="cls-57" d="M1049.13,524.92a35.19,35.19,0,1,0,65.07-18.57,35.19,35.19,0,1,0-59.76,0A35,35,0,0,0,1049.13,524.92Z"></path> <circle class="cls-2" cx="1129.29" cy="542" r="35.19"></circle> <line class="cls-47" x1="2395.15" y1="600.51" x2="2395.15" y2="519.63"></line> <circle class="cls-2" cx="2393.27" cy="542" r="35.19"></circle> <line class="cls-42" x1="780.69" y1="422.11" x2="954.28" y2="422.11"></line> <line class="cls-42" x1="780.69" y1="429.83" x2="954.28" y2="429.83"></line> <path class="cls-4" d="M811.82,440.16h0a6.51,6.51,0,0,1,6.51,6.51v19.06a0,0,0,0,1,0,0h-13a0,0,0,0,1,0,0V446.67A6.51,6.51,0,0,1,811.82,440.16Z"></path> <path class="cls-5" d="M845.65,440.16h0a6.51,6.51,0,0,1,6.51,6.51v19.06a0,0,0,0,1,0,0h-13a0,0,0,0,1,0,0V446.67A6.51,6.51,0,0,1,845.65,440.16Z"></path> <path class="cls-5" d="M811.82,497.91h0a6.51,6.51,0,0,1,6.51,6.51v19.06a0,0,0,0,1,0,0h-13a0,0,0,0,1,0,0V504.41A6.51,6.51,0,0,1,811.82,497.91Z"></path> <path class="cls-5" d="M845.65,497.91h0a6.51,6.51,0,0,1,6.51,6.51v19.06a0,0,0,0,1,0,0h-13a0,0,0,0,1,0,0V504.41A6.51,6.51,0,0,1,845.65,497.91Z"></path> <path class="cls-4" d="M934.68,440.16h0a6.51,6.51,0,0,1,6.51,6.51v19.06a0,0,0,0,1,0,0h-13a0,0,0,0,1,0,0V446.67A6.51,6.51,0,0,1,934.68,440.16Z"></path> <path class="cls-4" d="M934.68,497.91h0a6.51,6.51,0,0,1,6.51,6.51v19.06a0,0,0,0,1,0,0h-13a0,0,0,0,1,0,0V504.41A6.51,6.51,0,0,1,934.68,497.91Z"></path> <path class="cls-5" d="M890.15,440.16h0a6.51,6.51,0,0,1,6.51,6.51v19.06a0,0,0,0,1,0,0h-13a0,0,0,0,1,0,0V446.67A6.51,6.51,0,0,1,890.15,440.16Z"></path> <path class="cls-5" d="M890.15,497.91h0a6.51,6.51,0,0,1,6.51,6.51v19.06a0,0,0,0,1,0,0h-13a0,0,0,0,1,0,0V504.41A6.51,6.51,0,0,1,890.15,497.91Z"></path> <line class="cls-47" x1="866.27" y1="585.69" x2="866.27" y2="455.63"></line> <path class="cls-58" d="M831.64,523.28a35.19,35.19,0,1,0,65.07-18.57,35.19,35.19,0,1,0-59.77,0A35.09,35.09,0,0,0,831.64,523.28Z"></path> <path class="cls-2" d="M1048.31,533.82a15.11,15.11,0,0,1,30.21,0"></path> <path class="cls-2" d="M918.51,533.82a15.11,15.11,0,0,1,30.21,0"></path> <path class="cls-2" d="M908.11,533.82a8.9,8.9,0,1,1,17.8,0"></path> <path class="cls-2" d="M934.61,533.82a34,34,0,0,1,67.93,0"></path> <path class="cls-2" d="M976.4,533.82a39.95,39.95,0,1,1,79.9,0"></path> <path class="cls-4" d="M873.37,400.58c0-8.22,7.46-14.88,16.66-14.88s16.67,6.66,16.67,14.88"></path> <line class="cls-7" x1="607.04" y1="402.37" x2="694.56" y2="402.37"></line> <path class="cls-6" d="M739,437.31h0a5.86,5.86,0,0,1,5.86,5.86v8.14a0,0,0,0,1,0,0H733.12a0,0,0,0,1,0,0v-8.14A5.86,5.86,0,0,1,739,437.31Z"></path> <path class="cls-6" d="M762.44,437.31h0a5.86,5.86,0,0,1,5.86,5.86v8.14a0,0,0,0,1,0,0H756.57a0,0,0,0,1,0,0v-8.14A5.86,5.86,0,0,1,762.44,437.31Z"></path> <rect class="cls-5" x="721.39" y="503.84" width="61.7" height="25.44"></rect> <line class="cls-41" x1="717.76" y1="523.21" x2="781.94" y2="523.21"></line> <line class="cls-16" x1="721.17" y1="498.45" x2="781.94" y2="498.45"></line> <line class="cls-7" x1="484.07" y1="390.15" x2="654.81" y2="390.15"></line> <line class="cls-7" x1="484.11" y1="414.57" x2="607.29" y2="414.57"></line> <line class="cls-7" x1="484.07" y1="384.67" x2="654.81" y2="384.67"></line> <line class="cls-16" x1="721.17" y1="449.91" x2="780.4" y2="449.91"></line> <line class="cls-16" x1="721.17" y1="444.79" x2="780.4" y2="444.79"></line> <line class="cls-16" x1="738.76" y1="437.23" x2="738.76" y2="444.31"></line> <line class="cls-16" x1="762.51" y1="437.23" x2="762.51" y2="444.31"></line> <line class="cls-41" x1="744.64" y1="502.55" x2="744.64" y2="529.9"></line> <line class="cls-41" x1="767.66" y1="502.55" x2="767.66" y2="529.9"></line> <line class="cls-47" x1="808.8" y1="603.38" x2="808.8" y2="473.32"></line> <path class="cls-56" d="M844.54,503.84a35.19,35.19,0,1,0-65.07,18.57,35.19,35.19,0,1,0,59.77,0A35.07,35.07,0,0,0,844.54,503.84Z"></path> <path class="cls-2" d="M844.54,503.84a35.19,35.19,0,1,0-65.07,18.57,35.19,35.19,0,1,0,59.77,0A35.07,35.07,0,0,0,844.54,503.84Z"></path> <line class="cls-7" x1="560.67" y1="384.53" x2="560.67" y2="390.12"></line> <line class="cls-7" x1="567.51" y1="384.53" x2="567.51" y2="390.12"></line> <line class="cls-7" x1="574.35" y1="384.53" x2="574.35" y2="390.12"></line> <line class="cls-7" x1="536.98" y1="384.53" x2="536.98" y2="390.12"></line> <line class="cls-7" x1="543.82" y1="384.53" x2="543.82" y2="390.12"></line> <line class="cls-7" x1="550.66" y1="384.53" x2="550.66" y2="390.12"></line> <line class="cls-7" x1="512.17" y1="384.53" x2="512.17" y2="390.12"></line> <line class="cls-7" x1="519.02" y1="384.53" x2="519.02" y2="390.12"></line> <line class="cls-7" x1="525.86" y1="384.53" x2="525.86" y2="390.12"></line> <line class="cls-7" x1="585.92" y1="384.53" x2="585.92" y2="390.12"></line> <line class="cls-7" x1="592.76" y1="384.53" x2="592.76" y2="390.12"></line> <line class="cls-7" x1="599.6" y1="384.53" x2="599.6" y2="390.12"></line> <line class="cls-7" x1="609.86" y1="384.53" x2="609.86" y2="390.12"></line> <line class="cls-7" x1="616.7" y1="384.53" x2="616.7" y2="390.12"></line> <line class="cls-7" x1="623.54" y1="384.53" x2="623.54" y2="390.12"></line> <path class="cls-59" d="M851.88,238.7a10,10,0,0,0-9,5.7,39.94,39.94,0,0,0-68.23-23.64,34,34,0,0,0-50.27,14.13,19.09,19.09,0,0,0-13.6-5.7,19.39,19.39,0,0,0-18.9,15.66,23.8,23.8,0,0,0-47.27,4h47.6v0h37.87s0,0,0-.06H861.91A10,10,0,0,0,851.88,238.7Z"></path> <path class="cls-2" d="M653.19,509.43a23.83,23.83,0,0,0-19.53,10.16,23.81,23.81,0,0,0-32.18-6.51,42.17,42.17,0,0,0-79.17,20.24H677.08A23.9,23.9,0,0,0,653.19,509.43Z"></path> <path class="cls-2" d="M2450.22,500.64a23.86,23.86,0,0,1,19.53,10.15,23.83,23.83,0,0,1,32.17-6.51,42.18,42.18,0,0,1,79.17,20.25H2426.32A23.89,23.89,0,0,1,2450.22,500.64Z"></path> <path class="cls-23" d="M1811.16,587.31a3.83,3.83,0,0,0-5.7,0Z"></path> <circle class="cls-26" cx="1406.69" cy="363.77" r="18.76"></circle> <circle class="cls-26" cx="1390.67" cy="385.35" r="5.53"></circle> <circle class="cls-26" cx="1424.36" cy="341.97" r="18.76"></circle> <line class="cls-39" x1="2009.42" y1="383.9" x2="2066.65" y2="383.9"></line> <line class="cls-39" x1="2009.42" y1="442.17" x2="2066.65" y2="442.17"></line> <line class="cls-39" x1="2021.74" y1="384.22" x2="2021.74" y2="404.45"></line> <line class="cls-39" x1="1724.94" y1="536.27" x2="1724.94" y2="577.54"></line> <line class="cls-39" x1="1542.81" y1="525.47" x2="1542.81" y2="571.42"></line> <line class="cls-39" x1="1562.48" y1="540.17" x2="1521.21" y2="540.17"></line> <line class="cls-39" x1="2021.74" y1="442.54" x2="2021.74" y2="462.77"></line> <line class="cls-39" x1="1880.25" y1="495.16" x2="1867.2" y2="495.16"></line> <line class="cls-39" x1="1914.17" y1="495.16" x2="1901.12" y2="495.16"></line> <line class="cls-39" x1="2055.79" y1="384.22" x2="2055.79" y2="404.45"></line> <line class="cls-39" x1="2055.79" y1="442.54" x2="2055.79" y2="462.77"></line> <circle class="cls-60" cx="1717.84" cy="569.34" r="7.75"></circle> <circle class="cls-60" cx="1695.94" cy="569.34" r="7.75"></circle> <polyline class="cls-60" points="1704.1 557.69 1700.29 557.69 1696 570.07 1717.84 570.07 1711.05 560.45 1699.29 560.45"></polyline> <circle class="cls-61" cx="1696.19" cy="569.95" r="0.82"></circle> <circle class="cls-61" cx="1717.63" cy="569.95" r="0.82"></circle> <line class="cls-60" x1="1708.29" y1="569.95" x2="1711.62" y2="558.55"></line> <path class="cls-61" d="M1709.8,557.5h4.57a.2.2,0,0,1,.2.2v1.53a.19.19,0,0,1-.26.18l-4.57-1.52A.2.2,0,0,1,1709.8,557.5Z"></path> <path class="cls-2" d="M1713.34,577.5a8.27,8.27,0,0,1,16.54,0"></path> <path class="cls-2" d="M1727.25,577.5a23.8,23.8,0,1,1,47.6,0"></path> <path class="cls-2" d="M1530.07,577.5a13.49,13.49,0,0,1,27,0"></path> <line class="cls-39" x1="1528.47" y1="527.8" x2="1542.31" y2="539.94"></line> <line class="cls-39" x1="1557.49" y1="527.8" x2="1543.66" y2="539.94"></line> <path class="cls-62" d="M2537.54,292.34a13.41,13.41,0,0,0-8.87,3.36,23.78,23.78,0,0,0-30.25-12,37.57,37.57,0,0,0-64.55,6.47,23.76,23.76,0,0,0-38.74,4.23,13.45,13.45,0,0,0-20.6,11.41H2551A13.47,13.47,0,0,0,2537.54,292.34Z"></path> <rect class="cls-5" x="1864.6" y="525.19" width="17.81" height="2.71"></rect> <rect class="cls-5" x="1898.49" y="525.19" width="17.81" height="2.71"></rect> <path class="cls-63" d="M2525.67,376.42h0a6.51,6.51,0,0,1,6.51,6.51v7a0,0,0,0,1,0,0h-13a0,0,0,0,1,0,0v-7A6.51,6.51,0,0,1,2525.67,376.42Z"></path> <path class="cls-63" d="M2578,376.42h0a6.51,6.51,0,0,1,6.51,6.51v7a0,0,0,0,1,0,0h-13a0,0,0,0,1,0,0v-7A6.51,6.51,0,0,1,2578,376.42Z"></path> <path class="cls-63" d="M2602.79,376.42h0a6.51,6.51,0,0,1,6.51,6.51v7a0,0,0,0,1,0,0h-13a0,0,0,0,1,0,0v-7A6.51,6.51,0,0,1,2602.79,376.42Z"></path> <path class="cls-63" d="M2552.65,376.42h0a6.51,6.51,0,0,1,6.51,6.51v7a0,0,0,0,1,0,0h-13a0,0,0,0,1,0,0v-7A6.51,6.51,0,0,1,2552.65,376.42Z"></path> <polygon class="cls-4" points="2706.01 524.05 2620.93 524.05 2620.93 347.83 2662.54 319.31 2706.01 347.83 2706.01 524.05"></polygon> <line class="cls-47" x1="2639.23" y1="574.92" x2="2639.23" y2="462.37"></line> <rect class="cls-6" x="2670.76" y="391.86" width="10.75" height="15.91"></rect> <rect class="cls-5" x="2646.33" y="391.86" width="10.75" height="15.91"></rect> <rect class="cls-5" x="2670.76" y="419.23" width="10.75" height="15.91"></rect> <rect class="cls-6" x="2646.33" y="419.23" width="10.75" height="15.91"></rect> <rect class="cls-5" x="2670.76" y="446.6" width="10.75" height="15.91"></rect> <rect class="cls-6" x="2646.33" y="446.6" width="10.75" height="15.91"></rect> <path class="cls-64" d="M2674.72,475.84a35.19,35.19,0,1,0-65.07,18.57,35.19,35.19,0,1,0,59.77,0A35,35,0,0,0,2674.72,475.84Z"></path> <path class="cls-64" d="M2674.72,475.84a35.19,35.19,0,1,0-65.07,18.57,35.19,35.19,0,1,0,59.77,0A35,35,0,0,0,2674.72,475.84Z"></path> <path class="cls-6" d="M2663.78,338h0a5.38,5.38,0,0,1,5.38,5.38v10.53a0,0,0,0,1,0,0H2658.4a0,0,0,0,1,0,0V343.39a5.38,5.38,0,0,1,5.38-5.38Z"></path> <line class="cls-39" x1="2620.96" y1="354" x2="2706.06" y2="354"></line> <line class="cls-39" x1="2620.91" y1="360.95" x2="2705.97" y2="360.95"></line> <line class="cls-39" x1="2649.63" y1="353.99" x2="2649.63" y2="361.25"></line> <line class="cls-39" x1="2656.69" y1="353.99" x2="2656.69" y2="361.25"></line> <line class="cls-39" x1="2663.75" y1="353.99" x2="2663.75" y2="361.25"></line> <line class="cls-39" x1="2670.81" y1="353.99" x2="2670.81" y2="361.25"></line> <line class="cls-39" x1="2677.87" y1="353.99" x2="2677.87" y2="361.25"></line> <rect class="cls-22" x="2691.01" y="519.99" width="38.66" height="3.48" transform="translate(5420.69 1043.46) rotate(-180)"></rect> <rect class="cls-22" x="2691.01" y="516.52" width="33.85" height="3.48" transform="translate(5415.87 1036.51) rotate(-180)"></rect> <rect class="cls-22" x="2691.01" y="513.04" width="28.57" height="3.48" transform="translate(5410.6 1029.56) rotate(-180)"></rect> <circle class="cls-4" cx="1194.05" cy="460.61" r="4.47"></circle> <circle class="cls-50" cx="1178.92" cy="483.23" r="4.47"></circle> <path class="cls-22" d="M1183.3,558.86c0-3.87,2.24-7,5-7s5,3.13,5,7"></path> <circle class="cls-50" cx="1177.03" cy="556.69" r="4.24"></circle> <circle class="cls-50" cx="1184.53" cy="559.62" r="4.24"></circle> <circle class="cls-50" cx="1189.09" cy="558.32" r="4.24"></circle> <rect class="cls-4" x="1171.95" y="558.3" width="25.53" height="21.09"></rect> <path class="cls-22" d="M1174.5,558.53c0-3.86,2.25-7,5-7s5,3.14,5,7"></path> <polygon class="cls-65" points="1197.49 558.3 1197.49 579.39 1188.11 579.39 1188.11 558.32 1197.49 558.3"></polygon> <circle class="cls-2" cx="1862.09" cy="443.87" r="11.2"></circle> <path class="cls-66" d="M1861.88,457.77l3.06,14.8a1.21,1.21,0,0,0,1.18.95h14.1a1.2,1.2,0,0,0,1.17-.94l3.13-14.59Z"></path> <rect class="cls-11" x="1859.7" y="449.64" width="27" height="8.71" rx="1.75"></rect> <circle class="cls-67" cx="1878.49" cy="445.57" r="11.2"></circle> <circle class="cls-2" cx="1867.83" cy="429.62" r="11.2"></circle> <ellipse class="cls-4" cx="1874.19" cy="423.02" rx="6.09" ry="2.14" transform="translate(1252.92 2241.14) rotate(-83.85)"></ellipse> <ellipse class="cls-4" cx="1876.77" cy="423.79" rx="6.09" ry="2.14" transform="translate(580.33 1845.45) rotate(-60.36)"></ellipse> <ellipse class="cls-4" cx="1878.19" cy="425.47" rx="6.09" ry="2.14" transform="translate(75.8 1103.71) rotate(-33.39)"></ellipse> <ellipse class="cls-4" cx="1863.98" cy="440.21" rx="1.69" ry="4.81" transform="translate(-36.42 202.11) rotate(-6.15)"></ellipse> <ellipse class="cls-4" cx="1861.95" cy="440.82" rx="1.69" ry="4.81" transform="translate(25.61 978.44) rotate(-29.64)"></ellipse> <ellipse class="cls-4" cx="1860.82" cy="442.14" rx="1.69" ry="4.81" transform="translate(467.69 1752.62) rotate(-56.61)"></ellipse> <path class="cls-23" d="M1930.83,417.21h0a2.4,2.4,0,0,0,2.5-2.39l.65-2.93-5.43.54v2.39A2.39,2.39,0,0,0,1930.83,417.21Z"></path> <path class="cls-23" d="M1927.85,407.54c-1.24,2.86-1.15,5.25,1,6.06s5.71-1.16,6.52-3.32a3.83,3.83,0,0,0-2.16-5.17A4.25,4.25,0,0,0,1927.85,407.54Z"></path> <path class="cls-24" d="M1937.26,470.42l.27,2.78h8.9l0,0c-.32-.8-1-1.19-2.17-1.44s-2.73-.57-3.34-1.49Z"></path> <path class="cls-24" d="M1925.89,470.42l-.28,2.78h-8.9l0,0c.32-.8,1-1.19,2.17-1.44s2.73-.57,3.34-1.49Z"></path> <path class="cls-24" d="M1929.16,405.85s3,2.28,4.84,1.94a4.88,4.88,0,0,0,.41,3.52s2.46-1.28,1.06-4.36A3.78,3.78,0,0,0,1929.16,405.85Z"></path> <ellipse class="cls-23" cx="1934" cy="411.55" rx="1.25" ry="0.91" transform="translate(177.92 1320.36) rotate(-39.38)"></ellipse> <path class="cls-68" d="M1934.83,415.21c2.43.24,4.91,2.6,4.39,5l-4.43,12.54L1924,433.89l-.56-15.25c0-2.43,1.37-4.79,5.15-3.82h0s2.38,2.34,4.75.22Z"></path> <path class="cls-69" d="M1934.79,432.74s4.64,5.22,8.55,38l-9.25.16-4.27-30.62-1.63,30.46h-9.94l5.71-38.8Z"></path> <path class="cls-50" d="M1925.91,421.8a33.07,33.07,0,0,0,2.64-7s-2.37-1.32-5.5,1.34a10.21,10.21,0,0,0-2.79,4l-2.81,4.8-9.31,3.77,3.6,4.31,10.83-3.23Z"></path> <path class="cls-4" d="M1910.38,416l-7.06,5.81a2.47,2.47,0,0,0-.53,3.2l8.64,14.13a2.48,2.48,0,0,0,3.71.59l11-9.31a2.48,2.48,0,0,0,0-3.77L1913.54,416A2.46,2.46,0,0,0,1910.38,416Z"></path> <polygon class="cls-4" points="1909.61 431.71 1897.32 429.08 1895.62 430.48 1912.1 437.14 1909.61 431.71"></polygon> <path class="cls-70" d="M1910.38,416l-7.06,5.81a2.47,2.47,0,0,0-.53,3.2l8.64,14.13a2.48,2.48,0,0,0,3.71.59l11-9.31a2.48,2.48,0,0,0,0-3.77L1913.54,416A2.46,2.46,0,0,0,1910.38,416Z"></path> <path class="cls-22" d="M1920.07,429.47l3.62-3.06a7.23,7.23,0,0,0,0-11.05h0a7.23,7.23,0,0,0-9.26-.06l-3.58,3Z"></path> <path class="cls-23" d="M1922,436.67a6.6,6.6,0,0,1-6.34,2.6l4.73-4Z"></path> <path class="cls-50" d="M1934.86,415.21s5.9,1.51,3.67,6.44a77.74,77.74,0,0,1-6.8,11.15l-9.28,4.7-2.45-1.87,8.79-8,4.46-8"></path> <path class="cls-6" d="M1897.82,440a2.87,2.87,0,1,1-5.73,0c0-1.58,2.87-6.62,2.87-6.62S1897.82,438.38,1897.82,440Z"></path> <path class="cls-2" d="M1870.7,473.53a20.69,20.69,0,1,1,41.38,0"></path> <path class="cls-2" d="M1904.55,473.53a11.66,11.66,0,1,1,23.32,0"></path> <line class="cls-71" x1="1963.71" y1="588.6" x2="1963.71" y2="476.05"></line> <line class="cls-22" x1="1965.67" y1="602.46" x2="1965.67" y2="596.6"></line> <line class="cls-22" x1="1988.16" y1="602.46" x2="1988.16" y2="596.6"></line> <rect class="cls-4" x="1958.77" y="584.46" width="36.46" height="9.05"></rect> <line class="cls-22" x1="1959.68" y1="596.53" x2="1994.67" y2="596.53"></line> <ellipse class="cls-72" cx="1962.98" cy="505.7" rx="35.19" ry="62.66"></ellipse> <line class="cls-47" x1="2018.14" y1="609.45" x2="2018.14" y2="496.9"></line> <ellipse class="cls-73" cx="2017.39" cy="520.69" rx="35.19" ry="62.66"></ellipse> <rect class="cls-4" x="368.33" y="450.74" width="45.41" height="15.91"></rect> <rect class="cls-5" x="368.33" y="399.32" width="19.45" height="17.88"></rect> <rect class="cls-5" x="394.1" y="399.32" width="19.45" height="17.88"></rect> <rect class="cls-4" x="428.53" y="399.32" width="19.45" height="17.88"></rect> <rect class="cls-5" x="454.31" y="399.32" width="19.45" height="17.88"></rect> <rect class="cls-5" x="428.02" y="450.74" width="45.41" height="15.91"></rect> <rect class="cls-5" x="368.33" y="491.46" width="45.41" height="15.91"></rect> <rect class="cls-5" x="428.02" y="491.46" width="45.41" height="15.91"></rect> <line class="cls-7" x1="297.32" y1="466.92" x2="484.25" y2="466.92"></line> <line class="cls-7" x1="297.32" y1="475.94" x2="484.25" y2="475.94"></line> <line class="cls-7" x1="368.78" y1="466.89" x2="368.78" y2="475.73"></line> <line class="cls-7" x1="375.16" y1="466.89" x2="375.16" y2="475.73"></line> <line class="cls-7" x1="381.54" y1="466.89" x2="381.54" y2="475.73"></line> <line class="cls-7" x1="387.93" y1="466.89" x2="387.93" y2="475.73"></line> <line class="cls-7" x1="394.31" y1="466.89" x2="394.31" y2="475.73"></line> <line class="cls-7" x1="400.71" y1="466.89" x2="400.71" y2="475.73"></line> <line class="cls-7" x1="407.09" y1="466.89" x2="407.09" y2="475.73"></line> <line class="cls-7" x1="413.49" y1="466.89" x2="413.49" y2="475.73"></line> <line class="cls-7" x1="428.56" y1="466.89" x2="428.56" y2="475.73"></line> <line class="cls-7" x1="434.94" y1="466.89" x2="434.94" y2="475.73"></line> <line class="cls-7" x1="441.32" y1="466.89" x2="441.32" y2="475.73"></line> <line class="cls-7" x1="447.72" y1="466.89" x2="447.72" y2="475.73"></line> <line class="cls-7" x1="454.1" y1="466.89" x2="454.1" y2="475.73"></line> <line class="cls-7" x1="460.5" y1="466.89" x2="460.5" y2="475.73"></line> <line class="cls-7" x1="466.88" y1="466.89" x2="466.88" y2="475.73"></line> <line class="cls-7" x1="473.27" y1="466.89" x2="473.27" y2="475.73"></line> <line class="cls-7" x1="296.6" y1="431.93" x2="484.25" y2="431.93"></line> <line class="cls-42" x1="198.78" y1="497.4" x2="297.2" y2="497.4"></line> <line class="cls-42" x1="198.78" y1="446.86" x2="297.2" y2="446.86"></line> <circle class="cls-5" cx="320.23" cy="449.74" r="10.08"></circle> <line class="cls-39" x1="320.42" y1="438.95" x2="320.42" y2="461.28"></line> <line class="cls-39" x1="331.59" y1="450.12" x2="309.26" y2="450.12"></line> <line class="cls-7" x1="434.56" y1="399.26" x2="434.56" y2="417.2"></line> <line class="cls-7" x1="442.42" y1="399.26" x2="442.42" y2="417.2"></line> <line class="cls-7" x1="448.1" y1="402.8" x2="428.46" y2="402.8"></line> <line class="cls-42" x1="41.79" y1="329.41" x2="41.79" y2="501.47"></line> <line class="cls-42" x1="124.65" y1="376.43" x2="0.2" y2="376.43"></line> <line class="cls-42" x1="124.65" y1="419.34" x2="0.2" y2="419.34"></line> <line class="cls-47" x1="102.85" y1="492.43" x2="102.85" y2="411.55"></line> <circle class="cls-2" cx="100.97" cy="433.92" r="35.19"></circle> <path class="cls-2" d="M126,474a27.34,27.34,0,0,0-22.41,11.66,27.3,27.3,0,0,0-36.91-7.47,48.38,48.38,0,0,0-90.83,23.22H153.38A27.41,27.41,0,0,0,126,474Z"></path> <rect class="cls-6" x="232.43" y="466.15" width="8.67" height="14.1"></rect> <rect class="cls-5" x="211.82" y="466.15" width="8.67" height="14.1"></rect> <rect class="cls-5" x="253.03" y="466.15" width="8.67" height="14.1"></rect> <rect class="cls-5" x="273.63" y="466.15" width="8.67" height="14.1"></rect> <path class="cls-39" d="M236.76,422.62h0A4.34,4.34,0,0,1,241.1,427v7.78a0,0,0,0,1,0,0h-8.67a0,0,0,0,1,0,0V427A4.34,4.34,0,0,1,236.76,422.62Z"></path> <path class="cls-39" d="M216.16,422.62h0A4.34,4.34,0,0,1,220.5,427v7.78a0,0,0,0,1,0,0h-8.67a0,0,0,0,1,0,0V427A4.34,4.34,0,0,1,216.16,422.62Z"></path> <path class="cls-39" d="M257.37,422.62h0A4.34,4.34,0,0,1,261.7,427v7.78a0,0,0,0,1,0,0H253a0,0,0,0,1,0,0V427a4.34,4.34,0,0,1,4.34-4.34Z"></path> <path class="cls-39" d="M278,422.62h0a4.34,4.34,0,0,1,4.34,4.34v7.78a0,0,0,0,1,0,0h-8.67a0,0,0,0,1,0,0V427a4.34,4.34,0,0,1,4.34-4.34Z"></path> <line class="cls-42" x1="246.99" y1="447.01" x2="246.99" y2="497.91"></line> <path class="cls-74" d="M.18,591.43H704.09L632.2,554.25c-67.28-34.8-139.73-52.74-212.93-52.74H.18Z"></path> <path class="cls-2" d="M304.63,569.63a19.87,19.87,0,0,1,39.73,0"></path> <path class="cls-2" d="M133.89,569.63a19.87,19.87,0,0,1,39.73,0"></path> <path class="cls-2" d="M120.21,569.63a11.71,11.71,0,0,1,23.41,0"></path> <path class="cls-2" d="M155.07,569.63a44.68,44.68,0,0,1,89.35,0"></path> <path class="cls-2" d="M210,569.63a52.55,52.55,0,0,1,105.1,0"></path> <path class="cls-2" d="M654,591.45a23.8,23.8,0,1,1,47.6,0"></path> <path class="cls-2" d="M601,591.45a37.63,37.63,0,1,1,75.26,0"></path> <path class="cls-2" d="M694.7,591.45a13.49,13.49,0,0,1,27,0"></path> <line class="cls-47" x1="712.29" y1="598.92" x2="712.29" y2="518.05"></line> <circle class="cls-2" cx="710.41" cy="540.42" r="35.19"></circle> <path class="cls-2" d="M3128,523.86a40,40,0,1,1,79.9,0"></path> <path class="cls-2" d="M3075.1,523.86a31.59,31.59,0,0,1,63.18,0"></path> <path class="cls-2" d="M3047.8,523.86a18.82,18.82,0,0,1,37.63,0"></path> <path class="cls-2" d="M3191.48,523.86a18.82,18.82,0,0,1,37.63,0"></path> <rect class="cls-5" x="3223.03" y="424.31" width="10.75" height="15.91"></rect> <rect class="cls-4" x="3198.59" y="424.31" width="10.75" height="15.91"></rect> <rect class="cls-5" x="3223.03" y="451.68" width="10.75" height="15.91"></rect> <rect class="cls-5" x="3198.59" y="451.68" width="10.75" height="15.91"></rect> <rect class="cls-4" x="3223.03" y="479.05" width="10.75" height="15.91"></rect> <rect class="cls-4" x="3198.59" y="479.05" width="10.75" height="15.91"></rect> <line class="cls-7" x1="3019.72" y1="401.18" x2="3248" y2="401.18"></line> <rect class="cls-5" x="2859.41" y="482.96" width="10.75" height="15.91"></rect> <rect class="cls-4" x="2808.76" y="482.96" width="10.75" height="15.91"></rect> <rect class="cls-4" x="2758.1" y="482.96" width="10.75" height="15.91"></rect> <rect class="cls-5" x="2712.85" y="482.96" width="10.75" height="15.91"></rect> <line class="cls-63" x1="2737.2" y1="443.84" x2="2737.2" y2="524.03"></line> <line class="cls-63" x1="2789.15" y1="443.84" x2="2789.15" y2="524.03"></line> <line class="cls-63" x1="2841.73" y1="443.84" x2="2841.73" y2="524.03"></line> <path class="cls-6" d="M2763.74,418.6h0a8.14,8.14,0,0,1,8.14,8.14V442.4a0,0,0,0,1,0,0H2755.6a0,0,0,0,1,0,0V426.75A8.14,8.14,0,0,1,2763.74,418.6Z"></path> <line class="cls-63" x1="2763.74" y1="418.6" x2="2763.74" y2="442.39"></line> <line class="cls-63" x1="2755.6" y1="426.75" x2="2771.89" y2="426.75"></line> <path class="cls-6" d="M2814.42,418.6h0a8.14,8.14,0,0,1,8.14,8.14V442.4a0,0,0,0,1,0,0h-16.29a0,0,0,0,1,0,0V426.75A8.14,8.14,0,0,1,2814.42,418.6Z"></path> <line class="cls-63" x1="2814.42" y1="418.6" x2="2814.42" y2="442.39"></line> <line class="cls-63" x1="2806.27" y1="426.75" x2="2822.56" y2="426.75"></line> <path class="cls-6" d="M2864.46,418.6h0a8.14,8.14,0,0,1,8.14,8.14V442.4a0,0,0,0,1,0,0h-16.29a0,0,0,0,1,0,0V426.75A8.14,8.14,0,0,1,2864.46,418.6Z"></path> <line class="cls-63" x1="2864.46" y1="418.6" x2="2864.46" y2="442.39"></line> <line class="cls-63" x1="2856.32" y1="426.75" x2="2872.61" y2="426.75"></line> <line class="cls-63" x1="3021.79" y1="457.34" x2="2706.33" y2="457.34"></line> <line class="cls-63" x1="3015.96" y1="499.33" x2="2706.33" y2="499.33"></line> <line class="cls-63" x1="2887.27" y1="505.44" x2="2706.33" y2="505.44"></line> <line class="cls-63" x1="2807.59" y1="499.02" x2="2807.59" y2="505.42"></line> <line class="cls-63" x1="2814.43" y1="499.02" x2="2814.43" y2="505.42"></line> <line class="cls-63" x1="2821.27" y1="499.02" x2="2821.27" y2="505.42"></line> <line class="cls-63" x1="2857.94" y1="499.02" x2="2857.94" y2="505.42"></line> <line class="cls-63" x1="2864.78" y1="499.02" x2="2864.78" y2="505.42"></line> <line class="cls-63" x1="2871.62" y1="499.02" x2="2871.62" y2="505.42"></line> <line class="cls-63" x1="2756.64" y1="499.02" x2="2756.64" y2="505.42"></line> <line class="cls-63" x1="2763.48" y1="499.02" x2="2763.48" y2="505.42"></line> <line class="cls-63" x1="2770.32" y1="499.02" x2="2770.32" y2="505.42"></line> <rect class="cls-12" x="2935" y="425.92" width="10.75" height="15.91"></rect> <rect class="cls-4" x="2959.43" y="425.92" width="10.75" height="15.91"></rect> <rect class="cls-12" x="2983.86" y="425.92" width="10.75" height="15.91"></rect> <rect class="cls-6" x="2910.56" y="425.92" width="10.75" height="15.91"></rect> <path class="cls-63" d="M2940.37,382.59h0a5.38,5.38,0,0,1,5.38,5.38v3.56a0,0,0,0,1,0,0H2935a0,0,0,0,1,0,0V388A5.38,5.38,0,0,1,2940.37,382.59Z"></path> <path class="cls-63" d="M2964.81,382.59h0a5.38,5.38,0,0,1,5.38,5.38v3.56a0,0,0,0,1,0,0h-10.75a0,0,0,0,1,0,0V388a5.38,5.38,0,0,1,5.38-5.38Z"></path> <path class="cls-63" d="M2989.24,382.59h0a5.38,5.38,0,0,1,5.38,5.38v3.56a0,0,0,0,1,0,0h-10.75a0,0,0,0,1,0,0V388A5.38,5.38,0,0,1,2989.24,382.59Z"></path> <path class="cls-63" d="M2915.94,382.59h0a5.38,5.38,0,0,1,5.38,5.38v3.56a0,0,0,0,1,0,0h-10.75a0,0,0,0,1,0,0V388A5.38,5.38,0,0,1,2915.94,382.59Z"></path> <rect class="cls-6" x="2935" y="470.56" width="10.75" height="15.91"></rect> <rect class="cls-12" x="2935" y="508.02" width="10.75" height="15.91"></rect> <rect class="cls-6" x="2959.43" y="470.56" width="10.75" height="15.91"></rect> <rect class="cls-4" x="2910.56" y="470.56" width="10.75" height="15.91"></rect> <line class="cls-47" x1="3002.29" y1="574.92" x2="3002.29" y2="462.37"></line> <path class="cls-75" d="M2967.42,513a35.19,35.19,0,1,0,65.07-18.57,35.19,35.19,0,1,0-59.77,0A35,35,0,0,0,2967.42,513Z"></path> <path class="cls-75" d="M2967.42,513a35.19,35.19,0,1,0,65.07-18.57,35.19,35.19,0,1,0-59.77,0A35,35,0,0,0,2967.42,513Z"></path> <line class="cls-47" x1="3055.38" y1="599.22" x2="3055.38" y2="486.67"></line> <ellipse class="cls-76" cx="3054.62" cy="510.45" rx="35.19" ry="62.66"></ellipse> <line class="cls-47" x1="2589.51" y1="600.51" x2="2589.51" y2="519.63"></line> <circle class="cls-2" cx="2587.63" cy="542" r="35.19"></circle> <line class="cls-47" x1="2926.41" y1="569.25" x2="2926.41" y2="488.38"></line> <circle class="cls-2" cx="2926.53" cy="510.75" r="35.19"></circle> <path class="cls-2" d="M2831.66,571.8a40,40,0,1,1,79.9,0"></path> <path class="cls-2" d="M2778.81,571.8a31.59,31.59,0,1,1,63.18,0"></path> <path class="cls-2" d="M2744.82,571.8a22.94,22.94,0,0,1,45.87,0"></path> <path class="cls-2" d="M2895.07,571.8a20.39,20.39,0,1,1,40.78,0"></path> <line class="cls-22" x1="476.53" y1="602.46" x2="476.53" y2="596.6"></line> <line class="cls-22" x1="499.03" y1="602.46" x2="499.03" y2="596.6"></line> <rect class="cls-4" x="469.63" y="584.46" width="36.46" height="9.05"></rect> <line class="cls-22" x1="470.54" y1="596.53" x2="505.53" y2="596.53"></line> <line class="cls-47" x1="425.83" y1="598.68" x2="425.83" y2="468.62"></line> <path class="cls-77" d="M391.2,536.28a35.19,35.19,0,1,0,65.07-18.57,35.19,35.19,0,1,0-59.76,0A35,35,0,0,0,391.2,536.28Z"></path> <line class="cls-47" x1="386.57" y1="598.92" x2="386.57" y2="518.05"></line> <circle class="cls-2" cx="384.69" cy="540.42" r="35.19"></circle> </svg> 