<svg width="51" height="51" viewBox="0 0 51 51" fill="none" xmlns="http://www.w3.org/2000/svg">
<path fill-rule="evenodd" clip-rule="evenodd" d="M9.49674 0C9.66206 0 9.79716 0.129346 9.80628 0.29232L9.80677 0.309906V2.82853C9.80677 2.99378 9.67738 3.12883 9.51434 3.13794L9.49674 3.13844L3.13881 3.13838L3.13882 9.49584C3.13882 9.65519 3.0185 9.78646 2.86372 9.8038L2.84638 9.80526L2.82879 9.80575H0.310031C0.14471 9.80575 0.00961136 9.6764 0.000490783 9.51343L0 9.49584V2.83918C0 1.30673 1.21545 0.0545687 2.74059 0.00171709L2.7869 0.000483577L2.8395 0H9.49674ZM23.2957 6.66658C23.5537 6.66658 23.7642 6.87031 23.7748 7.12563L23.7752 7.14589V23.2954C23.7752 23.5534 23.5714 23.7637 23.316 23.7743L23.2957 23.7747H7.14495C6.88692 23.7747 6.6765 23.571 6.66588 23.3157L6.66546 23.2954V9.60849C6.66546 7.9934 7.92636 6.69282 9.52191 6.66697L9.57036 6.66658H23.2957ZM23.2957 26.3513C23.5442 26.3513 23.7499 26.5407 23.7732 26.7882L23.7747 26.809L23.7752 26.8306V29.4898L9.80423 29.4898V40.321H20.6363L20.6364 32.0662H23.7752V42.9802C23.7752 43.2285 23.5858 43.4342 23.3382 43.4575L23.3174 43.459L23.2957 43.4595H9.57036C7.98586 43.4595 6.71679 42.2024 6.66696 40.6133L6.66582 40.565L6.66546 40.5176V26.8306C6.66546 26.5823 6.85487 26.3767 7.10252 26.3534L7.12328 26.3519L7.14495 26.3513H23.2957ZM35.0492 40.3227L35.0492 31.7504H31.9104L31.9104 37.4652L26.3538 37.4652V42.9818L26.3542 43.0021C26.3648 43.2574 26.5752 43.4611 26.8333 43.4611H29.4926L29.4926 40.6037H34.9268L34.9268 43.4611H40.5586L40.6071 43.4607C42.2026 43.4349 43.4635 42.1343 43.4635 40.5192V34.6078H37.467V37.7463L40.3246 37.7462V40.3227H35.0492ZM2.82879 40.321C2.99411 40.321 3.12921 40.4503 3.13833 40.6133L3.13882 40.6309L3.13881 46.9883L9.33798 46.9884C9.4974 46.9884 9.62871 47.1086 9.64606 47.2634L9.64752 47.2807L9.64801 47.2983V49.8169C9.64801 49.9822 9.51861 50.1172 9.35557 50.1263L9.33798 50.1268H2.8395C1.30686 50.1268 0.0545731 48.9115 0.00171723 47.3865L0.000483618 47.3402L0 47.2876V40.6309C0 40.4657 0.129398 40.3306 0.292438 40.3215L0.310031 40.321H2.82879ZM49.8224 40.321C49.9877 40.321 50.1228 40.4503 50.1319 40.6133L50.1324 40.6309V47.2876C50.1324 48.8201 48.917 50.0722 47.3918 50.1251L47.3455 50.1263L47.2929 50.1268H40.6357C40.4704 50.1268 40.3353 49.9975 40.3261 49.8345L40.3256 49.8169V47.2983C40.3256 47.133 40.455 46.998 40.6181 46.9888L40.6357 46.9884L46.9935 46.9883L46.9936 40.6309C46.9936 40.4716 47.1139 40.3403 47.2687 40.3229L47.286 40.3215L47.3036 40.321H49.8224ZM18.5411 31.5906V38.2213H11.9096V31.5906H18.5411ZM34.8904 29.4898V26.3513H26.8333L26.813 26.3518C26.5576 26.3624 26.3538 26.5727 26.3538 26.8306V34.8872H29.4926L29.4926 29.4898L34.8904 29.4898ZM43.464 26.8104C43.4534 26.5551 43.2429 26.3513 42.9849 26.3513H40.3256L40.3255 29.2088L37.4679 29.2088V32.3473H40.6067L40.6067 29.4898L43.4644 29.4898V26.8306L43.464 26.8104ZM43.462 9.51281C43.4122 7.92367 42.1431 6.66658 40.5586 6.66658H26.8333L26.8116 6.6671L26.7908 6.66862C26.5432 6.69192 26.3538 6.89753 26.3538 7.14589V23.2954L26.3543 23.3171L26.3558 23.3379C26.3791 23.5854 26.5848 23.7747 26.8333 23.7747L29.4926 23.7747L29.4926 9.80496H40.3246V20.6362L37.7845 20.6363V23.7747L42.984 23.7747L43.0057 23.7742L43.0265 23.7727C43.2741 23.7494 43.4635 23.5438 43.4635 23.2954V9.60849L43.4632 9.56106L43.462 9.51281ZM35.2072 20.6362V23.7747H32.0684V20.6362H35.2072ZM9.80642 9.80488H20.6385V20.6361H9.80642V9.80488ZM18.5411 11.9051V18.5359H11.9096V11.9051H18.5411ZM38.2294 18.5359V11.9051H31.5979V18.5359H38.2294ZM50.1307 2.74029C50.0778 1.21533 48.8256 0 47.2929 0H40.6357L40.6181 0.000490585C40.455 0.00960747 40.3256 0.144652 40.3256 0.309906V2.82853L40.3261 2.84612L40.3276 2.86344C40.3449 3.01816 40.4763 3.13844 40.6357 3.13844L46.9935 3.13838L46.9936 9.49584L46.9941 9.51343C47.0032 9.6764 47.1383 9.80575 47.3036 9.80575H49.8224L49.84 9.80526C50.003 9.79614 50.1324 9.6611 50.1324 9.49584V2.83918L50.1319 2.78659L50.1307 2.74029Z" fill="#F14635"/>
</svg>
