<?xml version="1.0" encoding="UTF-8"?> <svg xmlns="http://www.w3.org/2000/svg" xmlns:xlink="http://www.w3.org/1999/xlink" id="Layer_1" data-name="Layer 1" viewBox="0 0 120.61 95.69"> <defs> <style>.cls-1,.cls-7,.cls-8{fill:none;}.cls-2{fill:#e9c4ab;}.cls-3{fill:url(#linear-gradient);}.cls-4{stroke:#000;stroke-width:0.1px;}.cls-4,.cls-7,.cls-8{stroke-miterlimit:10;}.cls-5{fill:#e84e1b;}.cls-6{clip-path:url(#clip-path);}.cls-7{stroke:#fff;stroke-width:0.25px;}.cls-8{stroke:#e84e1b;stroke-width:0.5px;}.cls-9{fill:#46bd85;}.cls-10{fill:#ffd548;}.cls-11{fill:#8d41ff;}.cls-12{fill:#fff;}.cls-13{fill:url(#linear-gradient-2);}</style> <linearGradient id="linear-gradient" x1="34.98" y1="30.37" x2="22.73" y2="39.23" gradientUnits="userSpaceOnUse"> <stop offset="0.46" stop-color="#46bd85"></stop> <stop offset="0.68" stop-color="#3faa71"></stop> <stop offset="1" stop-color="#32874c"></stop> </linearGradient> <clipPath id="clip-path"> <path class="cls-1" d="M37.78,40.76s3.63,5.11,6,39.4h-10l-1.4-34.38L26,80.25,13.9,79.89S23.22,44.6,26.34,41.8Z"></path> </clipPath> <linearGradient id="linear-gradient-2" x1="65.67" y1="72.83" x2="110" y2="72.83" gradientUnits="userSpaceOnUse"> <stop offset="0" stop-color="#db3f32"></stop> <stop offset="0.05" stop-color="#e25b36"></stop> <stop offset="0.11" stop-color="#ea7c3b"></stop> <stop offset="0.18" stop-color="#f0983f"></stop> <stop offset="0.26" stop-color="#f6ae42"></stop> <stop offset="0.35" stop-color="#fac045"></stop> <stop offset="0.46" stop-color="#fdcc47"></stop> <stop offset="0.62" stop-color="#ffd348"></stop> <stop offset="1" stop-color="#ffd548"></stop> </linearGradient> </defs> <path class="cls-2" d="M24.37,80.05l-1,3.07-3.25.31-5.06.23.15-.1a10.52,10.52,0,0,1,2.19-1.12c1.45-.53,3.94-1.74,4.43-3.84l2.51,1.45"></path> <path class="cls-3" d="M37.78,40.76,26.54,42.45,22.11,29.91c-.52-2.39,2-4.76,4.39-5l6.21-.17a4.09,4.09,0,0,1,4.49,4.12Z"></path> <path class="cls-2" d="M29.6,26.92h0a2.4,2.4,0,0,1-2.5-2.39l-.65-2.93,5.43.54v2.39A2.4,2.4,0,0,1,29.6,26.92Z"></path> <path class="cls-2" d="M33.24,19.3c.16,3.11-.77,5.31-3.07,5.31s-5.26-3-5.26-5.31a4.17,4.17,0,0,1,4.17-4.17A4.24,4.24,0,0,1,33.24,19.3Z"></path> <path class="cls-4" d="M29.08,15.13a4.48,4.48,0,0,1-4.17,4.17A3.81,3.81,0,0,1,29.08,15.13Z"></path> <circle class="cls-4" cx="26.77" cy="14.7" r="2.03"></circle> <path class="cls-4" d="M29.08,15.13A7.56,7.56,0,0,0,33,17.91S33,15.49,29.08,15.13Z"></path> <path class="cls-4" d="M28.35,15.19S28.24,17,33,17.91C33,17.91,32.3,15.55,28.35,15.19Z"></path> <path class="cls-2" d="M43.93,82.6,44,83h-9l-.15-3.22,2.53-.45A14.07,14.07,0,0,0,43.93,82.6Z"></path> <path class="cls-4" d="M34.71,80.3,34.92,83h9s1.24-.84-6-1.19Z"></path> <path class="cls-4" d="M23.4,83.12l1-3.07s-2,1.37-3.39,2.2l-4.72.65s-1,.23-1.17.76Z"></path> <path class="cls-5" d="M37.78,40.76s3.63,5.11,6,39.4h-10l-1.4-34.38L26,80.25,13.9,79.89S23.22,44.6,26.34,41.8Z"></path> <ellipse class="cls-2" cx="25.18" cy="20.64" rx="1.09" ry="1.25" transform="translate(-3.33 4.92) rotate(-10.47)"></ellipse> <g class="cls-6"> <path class="cls-7" d="M27.81,40.54s-10,31.19-11.33,40.24"></path> <line class="cls-7" x1="29.35" y1="40.79" x2="19.42" y2="81.11"></line> <line class="cls-7" x1="31.35" y1="40.29" x2="23.45" y2="80.96"></line> <line class="cls-7" x1="33.59" y1="39.92" x2="35.94" y2="80.96"></line> <line class="cls-7" x1="35.47" y1="40.17" x2="39.01" y2="81.09"></line> <line class="cls-7" x1="37.48" y1="40.05" x2="42.31" y2="80.59"></line> </g> <circle class="cls-8" cx="28.06" cy="20.14" r="1.73"></circle> <circle class="cls-8" cx="32.16" cy="18.98" r="1.73"></circle> <path class="cls-9" d="M55.34,29.71C45,24.37,31.88,24.53,31.88,24.53l0,.54,3.3,6.47S45.59,33.47,51,32.62l2.69-.14,1.66-2.77"></path> <path class="cls-9" d="M24.88,37.3l5,10.75-3,2.51c-3.18-3.87-5.69-6.4-6.83-9.33-5.72-14.7,7.05-16.7,7.05-16.7a2.61,2.61,0,0,0,.26,1.13Z"></path> <ellipse class="cls-9" cx="97.04" cy="30.47" rx="9.68" ry="18.45"></ellipse> <path class="cls-10" d="M97.19,35h0a1.36,1.36,0,0,1,1.36,1.36v47a0,0,0,0,1,0,0H95.83a0,0,0,0,1,0,0v-47A1.36,1.36,0,0,1,97.19,35Z"></path> <rect class="cls-10" x="29.66" y="50.32" width="42.75" height="33.17"></rect> <rect class="cls-10" x="72.44" y="62.17" width="30.94" height="21.31"></rect> <rect class="cls-10" x="57.47" y="27.67" width="8.25" height="15.62" rx="1.27"></rect> <polygon class="cls-11" points="51.2 24.3 29.73 50.32 72.66 50.32 51.2 24.3"></polygon> <polygon class="cls-11" points="72.41 49.92 72.44 62.11 103.39 62.11 72.41 49.92"></polygon> <path class="cls-12" d="M52.23,68.57h0a7.06,7.06,0,0,1,7.06,7.06v7.94a0,0,0,0,1,0,0H45.18a0,0,0,0,1,0,0V75.62a7.06,7.06,0,0,1,7.06-7.06Z"></path> <path class="cls-13" d="M72.44,62.17h27.71a3.23,3.23,0,0,1,3.23,3.23V80.25a3.23,3.23,0,0,1-3.23,3.23H72.44a0,0,0,0,1,0,0V62.17A0,0,0,0,1,72.44,62.17Z"></path> <path class="cls-2" d="M26.88,50.56s3.48,5.21,8.47-.22l-5.62,0L31.66,48A4.79,4.79,0,0,0,26.88,50.56Z"></path> <path class="cls-2" d="M55.74,28.47l2.58,2.85A.7.7,0,0,1,58,32.47c-1.94.5-5.59.94-3.46-3.82A.76.76,0,0,1,55.74,28.47Z"></path> </svg> 