<?xml version="1.0" encoding="UTF-8"?> <svg xmlns="http://www.w3.org/2000/svg" xmlns:xlink="http://www.w3.org/1999/xlink" id="Layer_1" data-name="Layer 1" viewBox="0 0 128.43 95.69"> <defs> <style>.cls-1{fill:#ffd548;}.cls-2{fill:url(#linear-gradient);}.cls-3{fill:#4a96fb;}.cls-4{fill:#fff;}.cls-5{fill:#8d41ff;}.cls-6{fill:#e9c4ab;}.cls-7{stroke:#000;stroke-miterlimit:10;stroke-width:0.1px;}.cls-8{fill:url(#linear-gradient-2);}.cls-9{fill:url(#linear-gradient-3);}.cls-10{fill:url(#linear-gradient-4);}.cls-11{fill:#e84e1b;}</style> <linearGradient id="linear-gradient" x1="50.32" y1="46.4" x2="117.25" y2="46.4" gradientUnits="userSpaceOnUse"> <stop offset="0.46" stop-color="#46bd85"></stop> <stop offset="0.68" stop-color="#3faa71"></stop> <stop offset="1" stop-color="#32874c"></stop> </linearGradient> <linearGradient id="linear-gradient-2" x1="48.63" y1="65.74" x2="57.44" y2="50.69" gradientUnits="userSpaceOnUse"> <stop offset="0" stop-color="#a8260c"></stop> <stop offset="0.02" stop-color="#ab280d"></stop> <stop offset="0.26" stop-color="#c63813"></stop> <stop offset="0.5" stop-color="#d94417"></stop> <stop offset="0.74" stop-color="#e44c1a"></stop> <stop offset="1" stop-color="#e84e1b"></stop> </linearGradient> <linearGradient id="linear-gradient-3" x1="29.2" y1="66.5" x2="42.09" y2="55.53" gradientUnits="userSpaceOnUse"> <stop offset="0" stop-color="#a8260c"></stop> <stop offset="0.2" stop-color="#bc3311"></stop> <stop offset="0.5" stop-color="#d44216"></stop> <stop offset="0.77" stop-color="#e34b1a"></stop> <stop offset="1" stop-color="#e84e1b"></stop> </linearGradient> <linearGradient id="linear-gradient-4" x1="83.03" y1="58.3" x2="56.21" y2="82.19" gradientUnits="userSpaceOnUse"> <stop offset="0" stop-color="#4a96fb"></stop> <stop offset="1" stop-color="#2742ab"></stop> </linearGradient> </defs> <path class="cls-1" d="M25.06,86.51c0-16.73,7.59-30.3,17-30.3s17,13.57,17,30.3"></path> <rect class="cls-2" x="50.32" y="19.79" width="49.27" height="53.23" rx="6.32"></rect> <rect class="cls-3" x="60.45" y="9.36" width="6.3" height="20.3" rx="2.3"></rect> <rect class="cls-3" x="83.18" y="9.36" width="6.3" height="20.3" rx="2.3"></rect> <rect class="cls-4" x="59.69" y="62.09" width="30.84" height="3.48" rx="1.74"></rect> <path class="cls-4" d="M59.69,53h29.1a1.74,1.74,0,0,1,1.74,1.74v0a1.74,1.74,0,0,1-1.74,1.74H59.69a0,0,0,0,1,0,0V53a0,0,0,0,1,0,0Z"></path> <rect class="cls-4" x="59.69" y="44.28" width="30.84" height="3.48" rx="1.74"></rect> <path class="cls-1" d="M115,14.57H78.82a5,5,0,0,0-5,5V43.08a5,5,0,0,0,4,4.9v7.29l9.6-7.19H115a5,5,0,0,0,5-5V19.56A5,5,0,0,0,115,14.57Z"></path> <path class="cls-5" d="M106.5,27.12a5,5,0,0,0-10,0,5,5,0,0,0-10,0c-.3,4.57,9.93,14,10,14.11h0C96.57,41.16,106.79,31.69,106.5,27.12Z"></path> <path class="cls-6" d="M21.54,50.53s-4.65-4.67-9.21-2.61l6.73,4.34"></path> <path class="cls-6" d="M22.74,50.63a17.49,17.49,0,0,0-3.24-3.75c-1.18-.77,1.36,4.43,2.38,5.11"></path> <path class="cls-6" d="M77.12,83.17l.3,3.07h9.83l-.06,0c-.35-.87-1.09-1.31-2.4-1.59s-3-.62-3.68-1.64Z"></path> <path class="cls-7" d="M87.19,86.19a2.82,2.82,0,0,0-2.4-1.59,4.51,4.51,0,0,0-3,1.56Z"></path> <path class="cls-7" d="M81.77,86.16s-4.47-3.39-5.64-3.81l1.29,3.89Z"></path> <path class="cls-6" d="M62.62,83.26l.31,3.07h9.82l-.06,0c-.35-.87-1.09-1.31-2.4-1.59s-3-.62-3.68-1.64Z"></path> <path class="cls-7" d="M72.69,86.28a2.82,2.82,0,0,0-2.4-1.59,4.51,4.51,0,0,0-3,1.56Z"></path> <path class="cls-7" d="M67.27,86.25S63.76,83,62.59,82.58l.34,3.75Z"></path> <path class="cls-7" d="M45.62,36.46a12,12,0,0,1,2.77,11.19l-11.82-.76,4.5-9.7Z"></path> <path class="cls-6" d="M42,48.45h0a2.65,2.65,0,0,0,2.76-2.64l.72-3.23-6,.6v2.63A2.65,2.65,0,0,0,42,48.45Z"></path> <path class="cls-6" d="M38,40c-.18,3.44.85,5.86,3.39,5.86s5.45-3.42,5.45-6a4.22,4.22,0,0,0-4.24-4.5A4.67,4.67,0,0,0,38,40Z"></path> <path class="cls-6" d="M47,46.24s2-.15,6.18,3.41c3.83,3.24,17.5,4.79,17.5,4.79s-1,2.07-2,4c0,0-17.58,0-21.51-7.31Z"></path> <path class="cls-6" d="M70.67,54.44,76.21,53s1.53,1.61-7.58,5.39Z"></path> <path class="cls-6" d="M66.79,58.44c7.75.15,6.54-.67,6.54-.67a8.58,8.58,0,0,0-3-.57A15.42,15.42,0,0,0,66.79,58.44Z"></path> <path class="cls-7" d="M38.67,37.78s3.95,1.2,5.75.12c0,0,.46,2.72,2,3.8a4.06,4.06,0,0,0-.82-5.24A4.18,4.18,0,0,0,38.67,37.78Z"></path> <ellipse class="cls-6" cx="45.89" cy="41.79" rx="1.38" ry="1.01" transform="translate(-13.25 60.64) rotate(-60)"></ellipse> <path class="cls-8" d="M66.79,58.44s-16.36,3.05-20-5.55l-2-6.83s3.09-.87,7.49,2.18,18.46,6.2,18.46,6.2Z"></path> <path class="cls-9" d="M46.41,46.24c2.69.26,3.64,4.6,3.07,7.24L48.27,65.27,34.41,66.85,33.8,50c0-2.69,1.51-5.29,5.68-4.22h0s2.63,2.58,5.24.25Z"></path> <path class="cls-10" d="M48.63,63.47s13.16-3.22,19.42,2.34c4.43,3.93,15.4,17.6,15.4,17.6l-9.08,0Z"></path> <path class="cls-3" d="M60.26,83.7l9.33-.27S66,66.25,56.91,63.86s-22.5,3-22.5,3l-.06.27a8.09,8.09,0,0,0,8.2,9.93,8.3,8.3,0,0,0,3.25-.92l6.47-3.24a3.33,3.33,0,0,1,4.43,1.38Z"></path> <path class="cls-11" d="M39.48,45.81S36.53,63.62,28.14,61s-10.66-8.83-10.66-8.83L23.15,50l5.71,3.57S32.13,43.35,39.48,45.81Z"></path> </svg> 