<?xml version="1.0" encoding="UTF-8"?> <svg xmlns="http://www.w3.org/2000/svg" xmlns:xlink="http://www.w3.org/1999/xlink" id="Layer_1" data-name="Layer 1" viewBox="0 0 128.43 95.69"> <defs> <style>.cls-1{fill:#e9c4ab;}.cls-2{stroke:#000;stroke-width:0.1px;}.cls-12,.cls-13,.cls-2,.cls-6{stroke-miterlimit:10;}.cls-3{fill:url(#linear-gradient);}.cls-4{fill:url(#linear-gradient-2);}.cls-5{fill:#4a96fb;}.cls-12,.cls-13,.cls-6{fill:none;}.cls-6{stroke:#8d41ff;stroke-width:0.5px;}.cls-7{fill:#46bd85;}.cls-8{fill:#8d41ff;}.cls-9{fill:#e84e1b;}.cls-10{fill:#ffd548;}.cls-11{fill:url(#linear-gradient-3);}.cls-12{stroke:#ffd548;}.cls-13{stroke:#fff;stroke-width:0.25px;}.cls-14{fill:url(#linear-gradient-4);}</style> <linearGradient id="linear-gradient" x1="26.4" y1="52.29" x2="50.24" y2="52.29" gradientUnits="userSpaceOnUse"> <stop offset="0.46" stop-color="#46bd85"></stop> <stop offset="0.68" stop-color="#3faa71"></stop> <stop offset="1" stop-color="#32874c"></stop> </linearGradient> <linearGradient id="linear-gradient-2" x1="38.29" y1="29.17" x2="34.83" y2="44.21" gradientUnits="userSpaceOnUse"> <stop offset="0" stop-color="#4a96fb"></stop> <stop offset="1" stop-color="#2742ab"></stop> </linearGradient> <linearGradient id="linear-gradient-3" x1="48.36" y1="21.45" x2="72.58" y2="40.35" gradientUnits="userSpaceOnUse"> <stop offset="0.5" stop-color="#ffd548"></stop> <stop offset="1" stop-color="#db3f32"></stop> </linearGradient> <linearGradient id="linear-gradient-4" x1="93.52" y1="59.35" x2="79.02" y2="84.54" gradientUnits="userSpaceOnUse"> <stop offset="0" stop-color="#642dba"></stop> <stop offset="0.03" stop-color="#672ebf"></stop> <stop offset="0.25" stop-color="#7837db"></stop> <stop offset="0.47" stop-color="#833cef"></stop> <stop offset="0.7" stop-color="#8b40fb"></stop> <stop offset="0.92" stop-color="#8d41ff"></stop> </linearGradient> </defs> <path class="cls-1" d="M45,47.85l3.32,14.76-.15,14.31s1.49,2.24,5.93,3.24l0,.42-8.88.09.38-3.3s-3.42-10.76-1.79-14.43c0,0-9-15.86-4.32-20.52l5-.33Z"></path> <path class="cls-1" d="M32.66,76.92a14.07,14.07,0,0,0,6.63,3.24l0,.42H29.79l.33-3.21s-.79-10.3.84-14.21c0,0-.65-19.12,4.56-22.59l4.89,1.3-4,21.94Z"></path> <circle class="cls-2" cx="31.6" cy="18.72" r="4.13"></circle> <circle class="cls-2" cx="33.36" cy="15.73" r="3.89"></circle> <circle class="cls-2" cx="38.74" cy="19.32" r="3.89"></circle> <circle class="cls-2" cx="28.96" cy="23.52" r="4.13"></circle> <circle class="cls-2" cx="27.15" cy="28.33" r="4.13"></circle> <path class="cls-3" d="M26.4,66.36s3-23.84,7.38-27.59l11.45-1S48,46,50.24,66.85"></path> <path class="cls-4" d="M45.23,37.73,34,39.42,29.87,28.73c-.51-2.39,1.64-6.6,4.08-6.84l6.2-.18a4.08,4.08,0,0,1,4.49,4.12Z"></path> <path class="cls-5" d="M34.66,21.5s-7.93.92-7.28,13c.6,11.15,20.2,5.22,20.2,5.22l-3-3.82S34.33,35.36,34.11,33"></path> <path class="cls-1" d="M37,23.89h0a2.4,2.4,0,0,1-2.5-2.39l-.65-2.93,5.43.55V21.5A2.39,2.39,0,0,1,37,23.89Z"></path> <path class="cls-1" d="M40.69,16.27c.15,3.12-.78,5.32-3.08,5.32s-5.26-3-5.26-5.32a4.17,4.17,0,0,1,4.17-4.16A4.24,4.24,0,0,1,40.69,16.27Z"></path> <path class="cls-2" d="M36.52,12.11a4.48,4.48,0,0,1-4.12,4.28A3.84,3.84,0,0,1,36.52,12.11Z"></path> <path class="cls-2" d="M36.52,12.11a7.57,7.57,0,0,0,3.88,2.77S40.47,12.46,36.52,12.11Z"></path> <path class="cls-2" d="M35.79,12.16S35.68,14,40.4,14.88C40.4,14.88,39.75,12.52,35.79,12.16Z"></path> <ellipse class="cls-1" cx="32.63" cy="17.62" rx="1.09" ry="1.25" transform="translate(-2.66 6.22) rotate(-10.47)"></ellipse> <circle class="cls-6" cx="35.51" cy="17.11" r="1.73"></circle> <circle class="cls-6" cx="39.6" cy="15.95" r="1.73"></circle> <path class="cls-1" d="M44.6,35.89a5.71,5.71,0,0,0,6.67,4.48L45.62,35.7"></path> <path class="cls-5" d="M39.41,21.74a9.55,9.55,0,0,0,6.92-3c1.66-1.63,1.79-4.56,3.91-6.36l3.2,1.75-3.2,12.1-7.52,2.37Z"></path> <path class="cls-7" d="M90.63,44.4c.84-10-7.08-27.53-12.6-25-5.86,2.7.28,6.37,3.39,9.13,0,0,9.63,5.37,7.08,21.37"></path> <path class="cls-7" d="M86.94,63.42,90,37.9s2.29-8.3,21.43,2.77c0,0,3.25,2,.84,4.57-2.83,3-13.67-4.47-18.38-7.12a1.41,1.41,0,0,0-2.1,1.1c-.29,3.28-.64,10.66,0,24.56"></path> <path class="cls-8" d="M74.92,60.34l3.94,19a1.53,1.53,0,0,0,1.5,1.23H98.45A1.55,1.55,0,0,0,100,79.33l4-18.71Z"></path> <ellipse class="cls-9" cx="93.73" cy="24.15" rx="7.81" ry="2.74" transform="translate(59.68 114.76) rotate(-83.85)"></ellipse> <ellipse class="cls-9" cx="97.04" cy="25.14" rx="7.81" ry="2.74" transform="translate(27.2 97.05) rotate(-60.36)"></ellipse> <ellipse class="cls-9" cx="98.87" cy="27.29" rx="7.81" ry="2.74" transform="translate(1.3 58.91) rotate(-33.39)"></ellipse> <path class="cls-5" d="M84,42.7a2.87,2.87,0,0,1-5.74,0c0-1.58,2.87-6.62,2.87-6.62S84,41.12,84,42.7Z"></path> <path class="cls-10" d="M62.39,15.23l8.83,7.27a3.09,3.09,0,0,1,.67,4L61.07,44.17a3.09,3.09,0,0,1-4.63.75L42.72,33.27a3.09,3.09,0,0,1,0-4.72l15.71-13.3A3.09,3.09,0,0,1,62.39,15.23Z"></path> <polygon class="cls-10" points="63.35 34.92 78.72 31.63 80.85 33.38 60.24 41.71 63.35 34.92"></polygon> <path class="cls-11" d="M62.39,15.23l8.83,7.27a3.09,3.09,0,0,1,.67,4L61.07,44.17a3.09,3.09,0,0,1-4.63.75L42.72,33.27a3.09,3.09,0,0,1,0-4.72l15.71-13.3A3.09,3.09,0,0,1,62.39,15.23Z"></path> <path class="cls-12" d="M50.26,32.12l-4.53-3.84a9,9,0,0,1,0-13.82h0a9.06,9.06,0,0,1,11.59-.07l4.49,3.7Z"></path> <line class="cls-13" x1="59.09" y1="14.47" x2="72.64" y2="25.96"></line> <path class="cls-14" d="M74.92,60.34l3.94,19a1.53,1.53,0,0,0,1.5,1.23H98.45A1.55,1.55,0,0,0,100,79.33l4-18.71Z"></path> <rect class="cls-8" x="72.13" y="49.91" width="34.65" height="11.18" rx="1.75"></rect> <path class="cls-2" d="M30,78.31s3.09-.08,3.58,2.44H29.79Z"></path> <path class="cls-2" d="M45.47,78.43s3.14-.29,3.63,2.24H45.27Z"></path> <path class="cls-2" d="M39.65,80.75h-6L33.35,80l5.61,0S39.69,80.1,39.65,80.75Z"></path> <path class="cls-2" d="M54.37,80.67h-6L48.07,80l5.61,0S54.41,80,54.37,80.67Z"></path> <path class="cls-1" d="M50.07,12.49s1.82,3.66,4.3.86S48,9.81,50.07,12.49Z"></path> </svg> 