<?xml version="1.0" encoding="UTF-8"?> <svg xmlns="http://www.w3.org/2000/svg" xmlns:xlink="http://www.w3.org/1999/xlink" id="Layer_1" data-name="Layer 1" viewBox="0 0 128.43 95.69"> <defs> <style>.cls-1,.cls-10,.cls-15{fill:none;}.cls-2{fill:#46bd85;}.cls-3{fill:#ffd548;}.cls-4{fill:#e9c4ab;}.cls-5{fill:url(#linear-gradient);}.cls-6{fill:url(#linear-gradient-2);}.cls-7{stroke:#000;stroke-width:0.1px;}.cls-10,.cls-15,.cls-7{stroke-miterlimit:10;}.cls-8{fill:#e84e1b;}.cls-9{clip-path:url(#clip-path);}.cls-10{stroke:#fff;stroke-width:0.25px;}.cls-11{fill:url(#linear-gradient-3);}.cls-12{fill:url(#linear-gradient-4);}.cls-13{fill:#4a96fb;}.cls-14{fill:#8d41ff;}.cls-15{stroke:#e84e1b;stroke-width:0.5px;}</style> <linearGradient id="linear-gradient" x1="44.33" y1="14.6" x2="53.05" y2="33.77" gradientUnits="userSpaceOnUse"> <stop offset="0.46" stop-color="#46bd85"></stop> <stop offset="0.68" stop-color="#3faa71"></stop> <stop offset="1" stop-color="#32874c"></stop> </linearGradient> <linearGradient id="linear-gradient-2" x1="42.39" y1="31.72" x2="30.14" y2="40.58" xlink:href="#linear-gradient"></linearGradient> <clipPath id="clip-path"> <path class="cls-1" d="M45.19,42.11s3.63,5.11,6,39.4h-10L39.75,47.13,33.39,81.6,21.3,81.24S30.62,46,33.74,43.15Z"></path> </clipPath> <linearGradient id="linear-gradient-3" x1="69.61" y1="31.44" x2="79.29" y2="21.44" gradientUnits="userSpaceOnUse"> <stop offset="0.02" stop-color="#642dba"></stop> <stop offset="0.09" stop-color="#6f33cd"></stop> <stop offset="0.19" stop-color="#7d39e3"></stop> <stop offset="0.3" stop-color="#863df3"></stop> <stop offset="0.43" stop-color="#8b40fc"></stop> <stop offset="0.6" stop-color="#8d41ff"></stop> </linearGradient> <linearGradient id="linear-gradient-4" x1="75.9" y1="42.72" x2="91.33" y2="26.79" gradientUnits="userSpaceOnUse"> <stop offset="0" stop-color="#642dba"></stop> <stop offset="0.02" stop-color="#672ebf"></stop> <stop offset="0.13" stop-color="#7736db"></stop> <stop offset="0.25" stop-color="#833cef"></stop> <stop offset="0.37" stop-color="#8b40fb"></stop> <stop offset="0.48" stop-color="#8d41ff"></stop> </linearGradient> </defs> <ellipse class="cls-2" cx="101.88" cy="54.8" rx="19.2" ry="19.05"></ellipse> <ellipse class="cls-2" cx="101.88" cy="31.44" rx="19.2" ry="19.05"></ellipse> <path class="cls-3" d="M101.59,44.82h0a1.36,1.36,0,0,1,1.36,1.36V84.5a0,0,0,0,1,0,0h-2.72a0,0,0,0,1,0,0V46.18A1.36,1.36,0,0,1,101.59,44.82Z"></path> <rect class="cls-3" x="39.98" y="39.69" width="2.72" height="59.48" rx="1.36" transform="translate(110.77 28.08) rotate(90)"></rect> <rect class="cls-3" x="35.11" y="30.36" width="12.47" height="59.48" rx="1.36" transform="translate(101.44 18.75) rotate(90)"></rect> <path class="cls-3" d="M21.88,69.54h0a1.36,1.36,0,0,1,1.36,1.36V84.5a0,0,0,0,1,0,0H20.52a0,0,0,0,1,0,0V70.9A1.36,1.36,0,0,1,21.88,69.54Z"></path> <path class="cls-3" d="M62.93,69.54h0a1.36,1.36,0,0,1,1.36,1.36V84.5a0,0,0,0,1,0,0H61.57a0,0,0,0,1,0,0V70.9A1.36,1.36,0,0,1,62.93,69.54Z"></path> <path class="cls-4" d="M31.77,81.4l-1,3.07-3.24.31L22.49,85l.15-.1a10.36,10.36,0,0,1,2.2-1.12c1.44-.53,3.93-1.74,4.43-3.84l2.5,1.45"></path> <path class="cls-5" d="M44.5,31.53c12.38.11,14.33-13.25,14.33-13.25l-2.39-2.72a21.26,21.26,0,0,1-7,7.21s-4.9,2.89-8.64,2.81-3,2.91-3,2.91Z"></path> <path class="cls-6" d="M45.19,42.11,33.94,43.8,29.51,31.26c-.52-2.39,2-4.76,4.4-5l6.2-.17a4.08,4.08,0,0,1,4.49,4.12Z"></path> <path class="cls-4" d="M37,28.27h0a2.4,2.4,0,0,1-2.5-2.39L33.85,23l5.43.54v2.39A2.39,2.39,0,0,1,37,28.27Z"></path> <path class="cls-4" d="M40.65,20.65c.15,3.11-.78,5.31-3.08,5.31s-5.26-3-5.26-5.31a4.17,4.17,0,0,1,4.17-4.17A4.25,4.25,0,0,1,40.65,20.65Z"></path> <path class="cls-7" d="M36.48,16.48a4.48,4.48,0,0,1-4.17,4.17A3.82,3.82,0,0,1,36.48,16.48Z"></path> <circle class="cls-7" cx="34.17" cy="16.05" r="2.03"></circle> <path class="cls-7" d="M36.48,16.48a7.56,7.56,0,0,0,3.88,2.78S40.43,16.84,36.48,16.48Z"></path> <path class="cls-7" d="M35.75,16.54s-.1,1.85,4.61,2.72C40.36,19.26,39.71,16.9,35.75,16.54Z"></path> <path class="cls-4" d="M51.34,84l0,.43h-9l-.15-3.22,2.53-.45A14.07,14.07,0,0,0,51.34,84Z"></path> <path class="cls-7" d="M42.11,81.65l.21,2.73h9s1.24-.84-6-1.19Z"></path> <path class="cls-7" d="M30.8,84.47l1-3.07s-2,1.37-3.39,2.2l-4.71.65s-1,.23-1.18.76Z"></path> <path class="cls-8" d="M45.19,42.11s3.63,5.11,6,39.4h-10L39.75,47.13,33.39,81.6,21.3,81.24S30.62,46,33.74,43.15Z"></path> <path class="cls-2" d="M33.91,26.26s-1.78-.13-5.6,3.1c-3.47,2.93-15.85,4.34-15.85,4.34s.86,1.88,1.85,3.58c0,0,16,2.46,19.54-4.12,0,0,3-4.11.06-6.9"></path> <ellipse class="cls-4" cx="32.59" cy="21.99" rx="1.09" ry="1.25" transform="translate(-3.45 6.29) rotate(-10.47)"></ellipse> <path class="cls-4" d="M58.83,18.28l.22-7.6s-1.63.76-2.61,4.88Z"></path> <path class="cls-4" d="M12.46,33.7l-5-1.3s-1.39,1.46,6.87,4.88Z"></path> <path class="cls-4" d="M14.31,37.28c-.66.33-4.27-.57-4.27-.57a7.89,7.89,0,0,1,2.75-.51A2,2,0,0,1,14.31,37.28Z"></path> <g class="cls-9"> <path class="cls-10" d="M35.22,41.89S25.16,73.08,23.89,82.14"></path> <line class="cls-10" x1="36.75" y1="42.14" x2="26.82" y2="82.46"></line> <line class="cls-10" x1="38.75" y1="41.64" x2="30.86" y2="82.31"></line> <line class="cls-10" x1="40.99" y1="41.27" x2="43.35" y2="82.31"></line> <line class="cls-10" x1="42.88" y1="41.52" x2="46.41" y2="82.44"></line> <line class="cls-10" x1="44.88" y1="41.4" x2="49.71" y2="81.94"></line> </g> <path class="cls-4" d="M83.07,28.27h0a2.4,2.4,0,0,0,2.5-2.39L86.22,23l-5.43.54v2.39A2.39,2.39,0,0,0,83.07,28.27Z"></path> <path class="cls-4" d="M79.42,20.65C79.27,23.76,80.2,26,82.5,26s4.93-3.1,4.93-5.4a3.83,3.83,0,0,0-3.84-4.08A4.25,4.25,0,0,0,79.42,20.65Z"></path> <path class="cls-4" d="M78.37,30.55C66,30.66,59.74,18.28,59.74,18.28l2.88-2.72a21.24,21.24,0,0,0,7,7.21s4.9,2.89,8.63,2.81,3,2.91,3,2.91Z"></path> <path class="cls-4" d="M59.74,18.28l.28-7.6s1.62.76,2.6,4.88Z"></path> <path class="cls-11" d="M80.59,25.69S72.72,25.56,68.92,22l-1,7s6.52,4.57,11.3,2.18S80.59,25.69,80.59,25.69Z"></path> <path class="cls-7" d="M89.5,81.48l.27,2.78h8.9l0,0c-.32-.8-1-1.19-2.17-1.45s-2.73-.56-3.34-1.48Z"></path> <path class="cls-4" d="M87.59,26.26s1.78-.13,5.59,3.1C96.66,32.29,109,33.7,109,33.7s-.86,1.88-1.85,3.58c0,0-15.93,0-19.48-6.62Z"></path> <path class="cls-4" d="M109,33.7l5-1.3s1.39,1.46-6.87,4.88Z"></path> <path class="cls-4" d="M107.19,37.28c.66.33,4.27-.57,4.27-.57a7.89,7.89,0,0,0-2.75-.51A2,2,0,0,0,107.19,37.28Z"></path> <path class="cls-7" d="M78.12,81.48l-.27,2.78H69l0,0c.32-.8,1-1.19,2.17-1.45s2.73-.56,3.34-1.48Z"></path> <path class="cls-7" d="M80.05,18.61s3.58,1.08,5.21.1a4.85,4.85,0,0,0,1.63,3.15s1.85-2.06-.54-4.45A3.78,3.78,0,0,0,80.05,18.61Z"></path> <ellipse class="cls-4" cx="86.59" cy="22.24" rx="1.25" ry="0.91" transform="matrix(0.5, -0.87, 0.87, 0.5, 24.04, 86.11)"></ellipse> <path class="cls-12" d="M87.06,26.26c2.44.24,4.92,2.61,4.4,5L87.11,46.45,76.2,44.94,75.64,29.7c0-2.44,1.37-4.79,5.15-3.82h0s2.38,2.34,4.74.22Z"></path> <path class="cls-13" d="M87.76,44.82S91.67,49,95.58,81.76l-9.25.16L82.06,54.27,80.43,81.76H70.49L76.17,45Z"></path> <path class="cls-14" d="M98.57,37.29s-7.71-1.09-11.19-5L85.53,26.1s2.8-.79,6.79,2a19.19,19.19,0,0,0,7.41,3.26Z"></path> <circle class="cls-15" cx="35.47" cy="21.49" r="1.73"></circle> <circle class="cls-15" cx="39.56" cy="20.33" r="1.73"></circle> </svg> 